<svg xmlns="http://www.w3.org/2000/svg" width="720.871" height="392.626" viewBox="0 0 720.871 392.626">
  <path id="Path_25" data-name="Path 25" d="M686.839,532.189h6.807l12.527,25.549h-5.82l-2.564-5.377H682.844l-2.564,5.377h-5.82Zm-1.479,15.043h9.864l-4.932-10.061Zm28.019,2.268a23.28,23.28,0,0,0,13.169,3.9c2.565,0,6.905-.641,6.905-3.5,0-2.072-2.268-2.613-3.847-2.663l-7.645-.246c-6.264-.149-9.321-3.8-9.321-7.744,0-3.8,2.811-7.842,11.985-7.842a24.1,24.1,0,0,1,12.33,3.354l-2.318,4.538a23.092,23.092,0,0,0-10.8-2.764c-2.713,0-6.067.594-6.067,2.861,0,1.974,2.811,2.467,4.537,2.467l6.659.247c5.869.147,9.618,2.663,9.618,8.04,0,4.587-3.6,8.384-12.035,8.384-6.9,0-11.985-1.726-15.536-4.44Zm83.273,0a23.284,23.284,0,0,0,13.169,3.9c2.566,0,6.906-.641,6.906-3.5,0-2.072-2.269-2.613-3.847-2.663l-7.646-.246c-6.263-.149-9.321-3.8-9.321-7.744,0-3.8,2.812-7.842,11.985-7.842a24.1,24.1,0,0,1,12.331,3.354l-2.319,4.538a23.091,23.091,0,0,0-10.8-2.764c-2.713,0-6.067.594-6.067,2.861,0,1.974,2.812,2.467,4.538,2.467l6.658.247c5.87.147,9.618,2.663,9.618,8.04,0,4.587-3.6,8.384-12.035,8.384-6.9,0-11.984-1.726-15.536-4.44Zm-42-17.311h6.806l12.528,25.549h-5.82l-2.565-5.377H750.658l-2.564,5.377h-5.82Zm-1.48,15.043h9.865l-4.932-10.061Zm84.857-15.043h6.806l12.528,25.549h-5.82l-2.565-5.377H834.035l-2.564,5.377h-5.82Zm-1.48,15.043h9.865l-4.933-10.061Zm144.315-15.043h6.806l12.527,25.549h-5.82l-2.564-5.377H976.87l-2.564,5.377h-5.821Zm-1.48,15.043h9.864l-4.932-10.061ZM868.373,532.189v20.42h14.7v5.129H863.243V532.189Zm44.273,0v5.129H895.089v4.637h9.272v5.129h-9.272v5.525h18.149v5.129H889.959V532.189Zm-245.139,0v5.129H649.949v4.637h9.272v5.129h-9.272v5.525H668.1v5.129h-23.28V532.189Zm258.877,0v9.666H940.1v-9.666h5.13v25.549H940.1V546.986H926.384v10.752h-5.129V532.189Zm85.1,0v20.42h14.7v5.129h-19.828V532.189Zm74.187,0v15.537c0,3.058.789,5.671,7.2,5.671,6.8,0,7.2-2.909,7.2-5.671V532.189h5.129v15.537c0,5.375-2.564,10.8-12.379,10.8-8.878,0-12.282-4.736-12.282-10.8V532.189Zm45.928,0c4.735,0,9.223,1.776,9.223,7.546,0,4.882-3.305,6.658-5.722,7.547l6.462,10.456H1135.1l-6.462-10.407h-8.186v10.407h-5.13V532.189Zm-11.147,5.129V542.2H1131.6c1.529,0,4.093-.2,4.093-2.466,0-2.367-2.318-2.417-4.093-2.417Zm44.91,5.869h11.492V553.94c-1.085,1.135-4.785,4.587-12.726,4.587-9.47,0-15.191-6.561-15.191-13.761,0-6.462,5.031-13.366,15.241-13.366a22.786,22.786,0,0,1,12.182,3.255l-3.008,5.08a15.74,15.74,0,0,0-9.371-3.207c-6.017,0-9.914,3.7-9.914,8.238,0,4.833,3.4,8.631,10.061,8.631a14.412,14.412,0,0,0,7.595-2.367v-3.107h-6.361Zm-105.639,0h11.492V553.94c-1.085,1.135-4.786,4.587-12.726,4.587-9.47,0-15.191-6.561-15.191-13.761,0-6.462,5.031-13.366,15.241-13.366a22.786,22.786,0,0,1,12.182,3.255l-3.008,5.08a15.739,15.739,0,0,0-9.371-3.207c-6.017,0-9.914,3.7-9.914,8.238,0,4.833,3.4,8.631,10.061,8.631a14.412,14.412,0,0,0,7.595-2.367v-3.107h-6.361Zm152.515,0h11.491V553.94c-1.085,1.135-4.785,4.587-12.725,4.587-9.47,0-15.192-6.561-15.192-13.761,0-6.462,5.032-13.366,15.241-13.366a22.78,22.78,0,0,1,12.182,3.255l-3.007,5.08a15.739,15.739,0,0,0-9.371-3.207c-6.018,0-9.914,3.7-9.914,8.238,0,4.833,3.4,8.631,10.061,8.631a14.412,14.412,0,0,0,7.595-2.367v-3.107h-6.361Zm37.386-11c4.736,0,9.224,1.776,9.224,7.546,0,4.882-3.305,6.658-5.722,7.547l6.462,10.456h-6.462l-6.462-10.407h-8.186v10.407h-5.131V532.189Zm-11.146,5.129V542.2h11.146c1.53,0,4.093-.2,4.093-2.466,0-2.367-2.317-2.417-4.093-2.417Zm28.283,7.645c0-7.151,5.622-13.563,15.685-13.563,10.111,0,15.684,6.362,15.684,13.563,0,7.152-5.672,13.564-15.684,13.564S1266.761,552.115,1266.761,544.963Zm26.238,0c0-4.439-4.192-8.435-10.553-8.435s-10.555,4.046-10.555,8.435c0,4.44,4.192,8.434,10.555,8.434S1293,549.4,1293,544.963Zm18.188-12.774v15.537c0,3.058.787,5.671,7.2,5.671,6.807,0,7.2-2.909,7.2-5.671V532.189h5.128v15.537c0,5.375-2.565,10.8-12.38,10.8-8.878,0-12.281-4.736-12.281-10.8V532.189Zm45.28,0c4.981,0,9.223,2.171,9.223,8.089,0,5.72-3.946,8.236-9.223,8.236h-10.209v9.224h-5.13V532.189Zm-10.209,11.2h10.209c1.973,0,4.094-.246,4.094-3.107,0-2.712-2.269-2.96-4.094-2.96h-10.209ZM1033.593,495.15s-4.807,6.057-6.237,7.887a26.859,26.859,0,0,0-7.51-6.41c-.47.592-4.84,6.1-6.2,7.83,0,0-2.206-3.162-7.653-6.5l6.427-8.2s5.225,2.848,7.374,6.652l6.33-8.074S1031.5,491.267,1033.593,495.15ZM904.662,333.52c1.484-1.856,6.274-7.775,6.783-8.4,5.74,3.635,8.058,7.018,8.058,7.018,1.566-1.964,6.83-8.463,6.83-8.463-2.219-4.225-8-7.452-8-7.452l-6.934,8.666c-2.284-4.14-7.907-7.28-7.907-7.28l-7.039,8.8C902.308,330.077,904.662,333.52,904.662,333.52Zm78.042,5.232-4.98,6.222a20.8,20.8,0,0,1,5.848,5.069c1.115-1.4,4.863-6.026,4.863-6.026-1.484-2.825-5.2-5.022-5.652-5.28,1.166-1.459,4.817-5.968,4.817-5.968-1.581-3.009-5.7-5.306-5.7-5.306l-5.012,6.265A21.23,21.23,0,0,1,982.7,338.752Zm78.727,43.542a44.044,44.044,0,0,1-3.3,4.529c1.073,1.521,1.966,2.81,2.672,3.816,10.958,15.625,21.477,37.908,38.354,44.3,13.578,5.147,38.309,5.664,65.8,9.356,18.582,2.5,34.961,6.931,40.777,8.347a128.65,128.65,0,0,1,27.833,10.949l-16.97.794c-14.843-7.9-34.32-12.41-52.4-15.051-17.134-2.5-33.016-3.321-42.514-3.75-9.623-.435-25.692-.295-37.84-8.658-.164-.113-.326-.237-.489-.355-.5,2.568-2.291,9.553-2.291,9.553s-4.725,1.749-12.533,10.086c-8.741,9.333-18.559,22.644-26.521,24.938-9.254,2.668-11.108-7.778-11.737-8.072-.193,1.478-.142,5.5-1.209,8.618-.978,2.653-6.549,9.148-11.865,8.352-5.639-.843-6.147-7.865-6.147-7.865-.786.085-3.416,10.385-11.053,9.112-7.407-1.235-6.238-9.076-6.238-9.076-1.381-.232-7.625,7.753-16.369,4.163-8.948-3.675-7.442-17.105-7.087-20.084.359-3.017.861-5.8,1.04-7.923.092-1.1.065-3.089-.824-4.249-.983-1.279-3.483-1.441-4.478-1.435-7.975.054-9.265,1.066-9.265,1.066-1.065,5.338,10.33,10.531,10.826,17.9.333,4.962-6.968,11.24-12.135,12.893-6.31,2.019-23.91-4-29.472-11.2a14.237,14.237,0,0,1-3.331-9.486c-.057-8.142,4.638-15.323,10.208-19.826a56.755,56.755,0,0,1,14.446-8c-.155-.846-.326-1.678-.529-2.47a.262.262,0,0,1,.085-.234c1.035-1.119,1.757-1.893,2.581-2.743a59,59,0,0,1-16.694,4.122c-23.413,2.335-51.574-3.234-73.56-13.671-25.239-11.984-41.7-28.29-50.507-43.9-10.541,7.507-20.739,15.492-29.611,23.169,0,0-.362.231-.073-.331,1.56-3.047,4.629-8.138,5.675-9.017,3.581-3.007,11.669-9.622,22.146-17.342q-1.239-2.5-2.216-4.964c-9.565-24.077-7.431-56.086,28.128-77.852,26.117-15.987,73.484-20.078,118.9-7.834a10.236,10.236,0,0,1-1.855-4.294c-.66-5.36,9.4-19,13.813-24.468-4.128-29.148-7.988-38.246-7.988-38.246l4.062-12.464c6.3,20.7,10.385,53.087,13.031,86.434q4.784,1.887,9.473,4.036a104.911,104.911,0,0,1,9.51,5.017q-.3-3.389-.6-6.635c-.537-.561-1.031-1.086-1.469-1.563-10.549-11.483-17.294-17.085-17.456-20.563-.351-7.432,9.461-22.374,13.284-27.475-5.018-35.719-9.167-45.934-9.167-45.934l4.06-12.463c6.639,22.28,11.448,60.445,14.791,97.309,3.324,3.4,7.231,7.307,11.825,11.792a56.508,56.508,0,0,1,6.394,7.394q-.776-9.714-1.571-18.482c-11.772-13.057-17.646-19.192-18.125-24.829-.625-7.355,8.643-22.724,12.313-27.907-5.322-39.338-9.783-51.276-9.783-51.276l4.061-12.463c7.043,23.637,12.331,66.432,16.152,106.128,3,3.447,6.488,7.409,10.566,11.982,19.844,22.264,35.656,41.853,40.534,56.5a43.312,43.312,0,0,1-.875,31.937c-.075.173-.153.342-.23.513,7.374,9.97,13.908,19.638,19.28,28.243a84.349,84.349,0,0,0,15.173,18.7c3,2.8,10.934,8.946,20.824,11.069,13.906,2.986,36.2,4.505,45.9,5.83,11.673,1.6,36.278,5.895,50.879,10.192,16.024,4.717,35.417,15.7,35.417,15.7l-16.42.286c-12.609-10.431-40.05-16.82-70.463-20.939-7.537-1.021-15.255-1.9-22.976-2.671-12.629-1.26-26.391-2.046-36.192-5.409-12.914-4.43-20.728-13.3-27.524-23.888C1074.341,400.813,1068.039,391.473,1061.431,382.294Zm-51.355-117.626c-1.25-12.231-2.5-22.861-3.716-32.069l-1.609,8.726s-6.257,4.681-6.386,6.038a4.19,4.19,0,0,0,.33,2.158C999.366,251.207,1001.8,254.867,1010.076,264.668Zm7.908,24.649c.95,11.037,1.7,21.615,2.293,31.408,15.5,14.174,30.242,31.257,42.812,47.831,1.289-9.109-1.1-18.426-5.124-26.3-9.147-17.926-31.576-43.274-31.576-43.274C1023.369,295.44,1020.573,292.241,1017.984,289.317Zm-46.734,55.3q-.625-13.483-1.376-25.235c-9.049-4.228-22.989-9.819-36.851-11.032a40.41,40.41,0,0,1,1.9,8.838,34.016,34.016,0,0,1-2.235,14.609c.2.245-.252,2.31-.336,2.892-.17,1.185-2.5,13.118,2.553,20.449a9.553,9.553,0,0,0,4.744,3.613c.149.053.3.1.448.154a14.025,14.025,0,0,0,3.419.6c8.139.477,12.022-9.022,12.651-12.294.651-3.389-1.763-10.841-4.356-13.826,0,0,1.816,17.82-7.231,17.743-4.217-.036-6.427-5.008-7.207-9.682a35.561,35.561,0,0,1-.128-9.4s1.844-15.516,9.942-15.166c7.725.333,13.413,14.794,11.078,30.973a61.909,61.909,0,0,1-2.388,10.607C962.4,354.818,966.069,347.211,971.25,344.619Zm-42.8,8.158q.856.588,1.718,1.152a53.247,53.247,0,0,1,1.236-18.776c-2.518,6.219-5.191,11.391-3.8,15.608A15.214,15.214,0,0,0,928.453,352.777Zm19-15.289,1.257-6.63a4.509,4.509,0,0,0-3.1-2.084c-2.388-.081-5.351,3.01-5.65,6.007,1.32,3.627,3.363,5.257,5,5.429a3.632,3.632,0,0,0,3.479-1.669A3.06,3.06,0,0,0,947.449,337.488Zm-24.52-29.267c-19.842,1.076-38.138,9.686-41.352,25.838a47.2,47.2,0,0,1,8.064-.824c8.787-.071,18.648,5.724,24.125,9.171,3.762,2.368,7.062,4.84,10.233,7.173.429-7.309,3.791-11.6,5.275-17.363C930.389,327.876,929.938,319.323,922.929,308.221ZM881.29,343.28c2.752,29.354,29.48,40.706,49.714,43.611,13.714,1.967,19.359.235,22.954-.948a31.2,31.2,0,0,0,18.274-15.687l.016-.032q-.417-12.959-.951-24.573L968.98,354.6c-3.594,1.543-7.961,7.336-9.233,8.9-2.472,3.046-5.787,6.494-10.385,8.072.532.383,1.076.767,1.639,1.153l-.64,11.8s-13.681-5.846-21.35-17.348c-13.863-8.2-28.566-22.385-41.467-23.478C886,343.58,883.861,343.358,881.29,343.28Zm93.128-27.83q5.335,2.223,10.446,4.8c-3.2-3.953-7.271-8.526-10.9-12.509Q974.206,311.609,974.418,315.45Zm32.44,41.8c1.624-3.579,2.96-6.734,4.345-9.873-4.24-3.7-8.207-6.955-11.937-9.827.612,10.84,1.047,20.817,1.293,29.548.209,2.064.455,5.393.621,10.523a67.767,67.767,0,0,1-.257,7.853c3.159-6.31,4.059-6.523,4.059-6.523a4.484,4.484,0,0,1,1.73-.456c-2.218-1.276-3.527-5.161-3.4-7.723C1003.363,365.783,1004.85,361.667,1006.858,357.252Zm-6.4,35.53c-.136-.039,3.8-2.1,4.846-2.593,6.241-2.956,8.132-4.015,8.132-4.015l.206-.169c-2.191-.6-8.37-.531-9.663-.358-1.348.183-2.927.483-2.927.483s-.093.036-.2.065a108.288,108.288,0,0,1-1.886,12.258,114.857,114.857,0,0,0,19.786-7.55c-.031-3.063-.127-5.974-.243-8.482a43.251,43.251,0,0,1-2.6,3.682c-.4.516-2.714,3.635-4.743,4.616-.376.182-4.64.749-8.308,1.593A17.375,17.375,0,0,1,1000.46,392.782Zm8.525,31.124c4.712-5.65,8.371-11.057,9.184-17.942-9.118,6.447-19.034,13.413-24.994,20.389a32.946,32.946,0,0,0-6.13,10.2,18.618,18.618,0,0,0,6.161,1.788C998.2,434.369,1005.589,427.977,1008.985,423.906ZM974.748,321.763c1.162,23.484,1.552,45.606,1.637,62.532,2.848-2.725,4.622-4.587,4.622-4.587-6.409-2.679-.9-29.961,5.779-29.976,7.232-.017,5,16.962,5,16.962,3.333-5.4,3.857-14.1,3.13-21.866a51.481,51.481,0,0,0-3.261-12.854A145.976,145.976,0,0,0,974.748,321.763Zm14.91,44.06c-.284-3.977-2.846-6-4.325-5.64-2.656.318-4.655,7.546-4.655,7.546.634,2.975,3.4,4.953,6.068,4.06C988.8,370.523,989.717,366.661,989.658,365.823ZM972.84,421.2a26.784,26.784,0,0,1-6.064,7.839,35.474,35.474,0,0,1,7.355,3.217,46.19,46.19,0,0,1-.938-5.72C973.024,424.9,972.911,423.131,972.84,421.2Zm8.219,10.081a15.974,15.974,0,0,0,3.364,3.608c5.347-15.6,20.445-27.749,20.445-27.749s-12.92,3.767-16.467,4.694c-2.8.733-7.843,2.022-9.766,3.336-.271.184-1.3,1.263-1.417,1.2-.192-.108-.061-.771-.03-.919,1.278-6.021,4.36-13.114,5.822-14.014,5.889-3.623,14.451-7.929,14.451-7.929.214-1.43-.022-8.971-.107-10.648q-.379-7.459-.774-14.54a27.457,27.457,0,0,1-1.676,6.313,13.785,13.785,0,0,1-4.727,5.885c-3.448,6.251-9.268,10.384-13.782,14.915-.005,4.643,0,9.966.094,14.343C976.736,421.464,977.928,426.693,981.059,431.283Zm4.931,17.077a15,15,0,0,0,3.617,7.323c6.7,7.069,21.074,2.769,32.669-4.008-.827-1.753-1.389-2.8-1.389-2.8l1.888-10.264a69.588,69.588,0,0,1-10.007,6.942c-3.025,6.518-4.7,9.351-5.208,9.335-.7-.022,1-5.746,1.543-7.572C1007.409,447.987,994.756,451.825,985.99,448.36Zm42.229-.529a132.572,132.572,0,0,0,13.307-10.961c-2.936-.783-4.859-4.875-4.641-9.84.011-.276-.024-.966-.222-1.009-.322-.069-.964.376-2.175,1.763a128.1,128.1,0,0,1-11.213,10.414A39.155,39.155,0,0,1,1028.219,447.831Zm16.383-22.438c5.747-.614,10.374-7.415,10.374-7.415a14.936,14.936,0,0,0-12.693-9.506c-14.34-1.46-24.473,24.233-24.473,24.233,5.837-3.845,15.291-13.272,16.906-14.661.839-.725,3.929-3.217,4.846-2.835.351.148.383,1.814.267,2.8C1039.588,420.067,1039.865,425.9,1044.6,425.393Zm.349-28.285c1.029-1.263,2.8-3.217,4.882-5.508-7.865-11.362-17.057-23.43-27.843-34.229.472,14.378.512,23.122.512,23.122s.156,3.642.041,8.462a85.01,85.01,0,0,0,11.8-7.476,34.524,34.524,0,0,1,5.154-3.628L1037.86,389.5c-2.8,4.192-9.321,9.091-16.768,14.394a68.39,68.39,0,0,1-7.938,21.482c-3,4.975-10.991,10.028-17.272,13.152,5.823.1,12.089-1.566,17.246-3.505,0,0,13.3-36.635,29.091-37.907A17.434,17.434,0,0,1,1044.951,397.108Zm-28.086-44.658-.069-.064q-2.547-2.335-4.971-4.461c-.329,1.183-.663,2.28-.836,2.768-.75,2.16-1.934,5.117-2.866,7.782a25.541,25.541,0,0,0-1.633,6.8,8.607,8.607,0,0,0,1.873,5.663,2.805,2.805,0,0,0,3.3.756,5.572,5.572,0,0,0,.353-.861c.08-.231,2.523-6.548,2.518-6.067a30.407,30.407,0,0,1-1.768,9.041,10.319,10.319,0,0,1-3.031,4.511c3.028-.029,6.655.287,8.423.968.074.029.134.058.2.087-.186-3.286-.589-10.2-.589-10.2l.014-.007Q1017.335,360.563,1016.865,352.45Zm-.707-11.8q-.406-6.529-.824-12.731c-5.789-5.587-11.7-10.8-17.7-15.554.39,5.367.746,10.613,1.067,15.7,4.413,2.778,8.64,5.717,12.649,8.775Q1013.806,338.723,1016.158,340.652Zm-26.712-64.888c-1.211-11.517-2.421-21.463-3.589-30.03l-1.55,8.13s-6.915,5.976-7.436,7.246C976.871,261.11,978.945,264.639,989.446,275.764Zm7.419,26.465c3.7,2.428,7.389,5.105,11.061,7.987-3.315-3.928-7.6-8.369-11.4-12.261Q996.7,300.1,996.865,302.229ZM980.812,300.5q2.028,2.167,4.254,4.512a55.92,55.92,0,0,1,8.006,10.573q-.287-3.639-.577-7.14C988.636,305.589,984.742,302.924,980.812,300.5ZM955.3,270.791s2.9,4.359,11.928,14.718c-1.031-10.873-2.115-20.177-3.189-28.11l-1.883,7.256S955.821,269.522,955.3,270.791ZM816.908,366.414c16.135-11.224,35.589-23.108,52.874-29.146,2.152-15.854,14.705-29.768,42.945-32.224,2.6-.226,5.189-.352,7.771-.4-.336-.463-.681-.929-1.04-1.4L923.1,289.4a73.787,73.787,0,0,1,8.683,15.559,136.025,136.025,0,0,1,37.7,8.528q-.408-6-.841-11.539c-.549-.594-1.053-1.141-1.5-1.625-4.436-4.829-8.109-8.614-10.922-11.721-12.321-4.326-33.866-10.2-56.878-10.119-24.276.088-49.393,5.569-66.57,19.682-12.037,9.889-20.455,23.881-20.76,43.8A58.426,58.426,0,0,0,816.908,366.414Zm130.236,56.822c15.813-4.355,18.239-12,19.559-16.5,1.62-5.506,2.248-10.289,3.188-13.629a13.813,13.813,0,0,1,2.849-5.274q-.2-8.16-.435-15.837a35.244,35.244,0,0,1-16.8,19.65c-9.349,4.759-21.812,6.064-33.98,3.773-6.321-1.188-25.231-5.234-38.951-20.485-7.687-8.545-12.59-19.771-13.087-30.735a45.934,45.934,0,0,0-7.9,2.313c-12.482,4.916-27.708,13.58-42.863,23.713,15.711,30.322,55.959,48.463,87.908,53.671C928.878,427.526,941.193,424.874,947.144,423.236Zm4.4,11.136c1.8-.7,3.482-1.359,4.952-2.018,9.415-4.222,14.076-10.061,16.269-13.916-.063-3.709-.014-7.972.075-12.982l-.032-.069c-.034-2.333-.026-4.107-.009-5.71a30.406,30.406,0,0,0-3.194,7.552c-1.4,4.054-2.576,8.254-5.051,11.95-3.189,4.762-6.985,7-11.2,9.457-.876.512-1.776.98-2.688,1.41C951.032,431.48,951.322,432.927,951.546,434.372Zm-14.489,34.043c7.375-7.045,9.727-12.112,10.75-20.381a39.129,39.129,0,0,0,.023-8.327c-4.78,2.127-8.94,4.144-11.348,6.573-3.967,4.005-4.978,10.7-4.116,14.3A15.694,15.694,0,0,0,937.057,468.415Zm91.61,2.509a63.612,63.612,0,0,0-3.382-12.148c-8.8,6.146-19.217,11.019-28.259,11.574-15.048.927-17.152-12-15.248-24.489a19.542,19.542,0,0,1-4.789-5.853c-.877.527-1.964,1.131-3.311,1.831-.659.345-4.567,2.453-7.152,2.471-.48.005-5.206-1.524-9.44-2.466a20.55,20.55,0,0,1-2.74-.7c-.123-.11,4.969-.3,6.3-.3,7.927.011,10.408-.155,10.408-.155l.295-.077c-2-1.716-8.493-4.718-9.926-5.179-.954-.306-2.028-.608-2.682-.787-.99.554-2,1.074-3,1.543-1.266.589-2.529,1.154-3.774,1.7a38.293,38.293,0,0,1-.934,12.567c-2.1,7.969-6.821,13.519-13.646,18.271,8.7,8.126,21.2,10.244,21.2,10.244,2.452-3.476-4.1-9.672-7.554-13.291a6.3,6.3,0,0,1-2.017-5.638c.651-4.593,4.079-8.1,8.876-11.049,4.985-3.065,16.538-4.4,20.209-1.909,2.451,1.667.393,6.976-.622,15.168-.9,7.218,2.66,12.234,6.607,14.25,5.446,2.781,9.6.533,12.357-1.974,2.713-2.468,3.916-2.739,3.916-2.739.336.247-.786,1.774-1.568,2.919a3.265,3.265,0,0,0-.7,1.739s.035,3.58,4.617,4.382c6.628,1.161,8.823-5.3,9.429-6.447.732-1.389,1.814-3.526,2.76-3.53a6.827,6.827,0,0,1-.275,2.21,4.6,4.6,0,0,0,.874,4.162,5.047,5.047,0,0,0,4.266,1.6C1023.264,478.44,1028.082,474.288,1028.667,470.924Zm42.652-47.218a25.562,25.562,0,0,1-.325,5.288c-.3,2.045-1.9,12.041-6.793,16.322-4.416,3.868-17.761.558-19.286,4.843,0,0,5.074,5.406,16.717,3.158,1.644-.317,2.4-1.217,4.852-3.588,3.226-3.117,7.429-7.339,11.1-10.417a23.507,23.507,0,0,1,5.013-3.288C1078.755,433.074,1075.1,428.871,1071.319,423.706Zm-20.144-30.157c-1.495,1.343-3.146,2.773-4.5,3.787a14.8,14.8,0,0,1,11.919,15.852c-.242,2.574-.782,9.2-2,11.993-2.6,5.946-8.162,11.377-13.465,11.806-2.035,4.34-7.394,13.03-12.311,17.592-.1.08-.2.159-.294.239.747,2.553,1.5,5.4,2.255,8.576.84,3.516,3.183,7.386,6.668,7.7,5.281.476,12.993-6.529,12.993-6.529s-12.181.387-12.2-5.474,2.618-19.364,8.166-21.193c4.2-1.385,14.023-.425,18.171-3.709,2.95-2.334,3.686-8.9,4.195-11.234-1.9-2.635-3.841-5.505-5.858-8.583C1060.862,408.186,1056.307,401.049,1051.175,393.549Zm8.3-13.953a415.665,415.665,0,0,0-38.48-46.059c.209,4.1.389,8.014.544,11.7a237.1,237.1,0,0,1,34.827,39.1A34,34,0,0,0,1059.471,379.6Z" transform="translate(-644.819 -165.901)" fill="#fff"/>
</svg>
