<svg width="159" height="66" viewBox="0 0 159 66" fill="none" xmlns="http://www.w3.org/2000/svg">
<path d="M23.8257 51.1513C23.8257 51.1513 24.3326 34.4506 22.3468 22.0119C20.5762 11.0928 16.0491 0 16.0491 0L10.918 6.26638C10.918 6.26638 16.5421 13.5024 19.6389 25.8977C21.6111 34.2094 23.0034 42.659 23.8049 51.1803" fill="white"/>
<path d="M23.8848 56.6395C23.8848 56.6395 25.6685 43.223 29.1629 33.2428C32.2114 24.5422 37.8185 15.6953 37.8185 15.6953L41.6273 20.8133C37.2107 25.3577 33.6365 30.6506 31.0709 36.4452C28.1894 42.9936 25.7876 49.7428 23.8848 56.6395Z" fill="white"/>
<path d="M24.5737 31.3464C24.497 34.7311 25.0337 37.5095 25.7875 37.5312C26.5413 37.5528 27.2121 34.8321 27.2887 31.4402C27.3654 28.0484 26.8288 25.2771 26.0749 25.2483C25.3211 25.2194 24.6504 27.969 24.5737 31.3464Z" fill="white"/>
<path d="M25.248 56.6389C25.248 56.6389 28.6974 49.1674 32.4573 44.0399C34.8584 40.9156 37.5435 38.0499 40.4736 35.4844L41.6257 39.1981C38.3605 40.9823 35.4215 43.3711 32.9471 46.2521C30.1432 49.5082 27.5698 52.9799 25.248 56.6389Z" fill="white"/>
<path d="M30.0941 42.0033C29.3061 43.8828 29.1091 45.5403 29.6449 45.7068C30.1808 45.8732 31.2209 44.507 32.0089 42.6205C32.7969 40.7341 32.986 39.0765 32.458 38.9101C31.9301 38.7436 30.8821 40.1238 30.0941 42.0033Z" fill="white"/>
<path d="M21.8369 53.9091C21.8369 53.9091 17.9367 40.8417 13.1858 31.759C10.1568 26.2723 6.57886 21.1177 2.50883 16.377L0 22.6616C0 22.6616 6.31533 26.7195 11.9674 35.48C15.679 41.3749 18.9677 47.5339 21.8081 53.9091" fill="white"/>
<path d="M17.0166 37.9388C17.7487 40.5567 18.8142 42.5291 19.4091 42.2898C20.0039 42.0505 19.8862 39.788 19.1541 37.1701C18.422 34.5522 17.3631 32.5798 16.7617 32.7683C16.1603 32.9569 16.278 35.2702 17.0166 37.9025" fill="white"/>
<path d="M30.0814 51.5378C29.9661 51.633 29.8796 51.7501 29.7716 51.8453C31.1622 54.5177 31.573 57.2266 30.6434 59.0057C29.1159 61.8684 24.6268 61.2022 20.6205 57.4975C16.6142 53.7928 14.5894 48.5141 16.0882 45.6367C16.2321 45.3919 16.3986 45.1614 16.5854 44.9485C16.5383 44.8407 16.4853 44.7356 16.4268 44.6337C16.3774 44.5375 16.3221 44.4445 16.2611 44.3555C15.4104 44.7245 14.7142 45.3852 14.294 46.2224C12.3557 49.8832 14.9281 56.6336 20.0584 61.3413C25.1888 66.049 30.8668 66.8909 32.7979 63.2448C34.2895 60.4114 33.0861 55.7184 30.1102 51.5305" fill="white"/>
<path d="M23.8257 51.1513C23.8257 51.1513 24.3326 34.4506 22.3468 22.0119C20.5762 11.0928 16.0491 0 16.0491 0L10.918 6.26638C10.918 6.26638 16.5421 13.5024 19.6389 25.8977C21.6111 34.2094 23.0034 42.659 23.8049 51.1803" fill="white"/>
<path d="M23.8848 56.6395C23.8848 56.6395 25.6685 43.223 29.1629 33.2428C32.2114 24.5422 37.8185 15.6953 37.8185 15.6953L41.6273 20.8133C37.2107 25.3577 33.6365 30.6506 31.0709 36.4452C28.1894 42.9936 25.7876 49.7428 23.8848 56.6395Z" fill="white"/>
<path d="M24.5737 31.3464C24.497 34.7311 25.0337 37.5095 25.7875 37.5312C26.5413 37.5528 27.2121 34.8321 27.2887 31.4402C27.3654 28.0484 26.8288 25.2771 26.0749 25.2483C25.3211 25.2194 24.6504 27.969 24.5737 31.3464Z" fill="white"/>
<path d="M25.248 56.6389C25.248 56.6389 28.6974 49.1674 32.4573 44.0399C34.8584 40.9156 37.5435 38.0499 40.4736 35.4844L41.6257 39.1981C38.3605 40.9823 35.4215 43.3711 32.9471 46.2521C30.1432 49.5082 27.5698 52.9799 25.248 56.6389Z" fill="white"/>
<path d="M30.0941 42.0033C29.3061 43.8828 29.1091 45.5403 29.6449 45.7068C30.1808 45.8732 31.2209 44.507 32.0089 42.6205C32.7969 40.7341 32.986 39.0765 32.458 38.9101C31.9301 38.7436 30.8821 40.1238 30.0941 42.0033Z" fill="white"/>
<path d="M21.8369 53.9091C21.8369 53.9091 17.9367 40.8417 13.1858 31.759C10.1568 26.2723 6.57886 21.1177 2.50883 16.377L0 22.6616C0 22.6616 6.31533 26.7195 11.9674 35.48C15.679 41.3749 18.9677 47.5339 21.8081 53.9091" fill="white"/>
<path d="M17.0166 37.9388C17.7487 40.5567 18.8142 42.5291 19.4091 42.2898C20.0039 42.0505 19.8862 39.788 19.1541 37.1701C18.422 34.5522 17.3631 32.5798 16.7617 32.7683C16.1603 32.9569 16.278 35.2702 17.0166 37.9025" fill="white"/>
<path d="M30.0814 51.5378C29.9661 51.633 29.8796 51.7501 29.7716 51.8453C31.1622 54.5177 31.573 57.2266 30.6434 59.0057C29.1159 61.8684 24.6268 61.2022 20.6205 57.4975C16.6142 53.7928 14.5894 48.5141 16.0882 45.6367C16.2321 45.3919 16.3986 45.1614 16.5854 44.9485C16.5383 44.8407 16.4853 44.7356 16.4268 44.6337C16.3774 44.5375 16.3221 44.4445 16.2611 44.3555C15.4104 44.7245 14.7142 45.3852 14.294 46.2224C12.3557 49.8832 14.9281 56.6336 20.0584 61.3413C25.1888 66.049 30.8668 66.8909 32.7979 63.2448C34.2895 60.4114 33.0861 55.7184 30.1102 51.5305" fill="white"/>
<path d="M131.703 48.3395C131.703 48.3395 137.735 51.2156 141.939 46.4043C141.939 46.4043 140.808 53.3557 132.153 50.4871L131.703 48.3395Z" fill="white"/>
<path d="M58.1169 23.1541C57.9883 23.1541 57.9311 23.2047 57.8883 23.3856L56.4594 27.5176C56.2459 28.0863 56.1159 28.6836 56.0736 29.2905C56.0736 29.8115 56.3022 30.1878 57.1024 30.1878H57.4882C57.7954 30.1878 57.874 30.2456 57.874 30.4193C57.874 30.593 57.7239 30.7088 57.431 30.7088C56.6094 30.7088 55.5092 30.6147 54.709 30.6147C54.4232 30.6147 53.0087 30.7088 51.6727 30.7088C51.3297 30.7088 51.1797 30.6509 51.1797 30.4193C51.1797 30.1878 51.2797 30.1878 51.4869 30.1878C51.7548 30.1852 52.0222 30.1635 52.2871 30.1226C53.4659 29.9562 53.9589 28.9648 54.4732 27.5176L60.9032 9.34002C61.2175 8.50785 61.3676 8.18945 61.6176 8.18945C61.8677 8.18945 62.0034 8.44996 62.2606 9.10846C62.8822 10.7004 66.9973 22.5173 68.6477 26.917C69.6265 29.522 70.3695 29.9272 70.9125 30.072C71.2671 30.1487 71.6287 30.1875 71.9913 30.1878C72.1985 30.1878 72.3342 30.1878 72.3342 30.4193C72.3342 30.6509 72.0984 30.7088 71.1482 30.7088C70.198 30.7088 68.3405 30.7088 66.2758 30.6509C65.8114 30.6509 65.5042 30.6509 65.5042 30.4193C65.5042 30.1878 65.6113 30.1878 65.8685 30.1588C65.9273 30.131 65.9799 30.0915 66.0234 30.0427C66.0668 29.9939 66.1002 29.9368 66.1215 29.8748C66.1428 29.8127 66.1516 29.747 66.1474 29.6814C66.1433 29.6159 66.1262 29.5518 66.0972 29.4931L64.0396 23.3495C64.0262 23.2915 63.9931 23.2401 63.9461 23.2044C63.899 23.1686 63.8411 23.1508 63.7824 23.1541H58.1169ZM63.9038 22.8936C64.0396 22.8936 63.5252 21.6128 63.4966 21.5332L61.1818 14.3837C61.1818 14.2679 61.1247 14.116 61.0532 14.116C60.9818 14.116 60.9175 14.2679 60.896 14.3837L58.5384 21.5115C58.3499 21.9613 58.2063 22.4292 58.1097 22.9081L63.9038 22.8936Z" fill="white"/>
<path d="M74.517 19.7824C74.517 16.2183 74.517 15.5683 74.4721 14.8087C74.4272 14.0491 74.2553 13.6402 73.5376 13.4795C73.2623 13.4236 72.9814 13.3991 72.7003 13.4064C72.4611 13.4064 72.334 13.3553 72.334 13.1946C72.334 13.034 72.4835 12.9828 72.805 12.9828C73.9563 12.9828 75.3094 13.0559 75.7953 13.0559C76.5429 13.0559 78.1652 12.9828 78.838 12.9828C80.2392 12.8781 81.6361 13.2328 82.8078 13.9907C83.2804 14.3886 83.6589 14.882 83.9171 15.4369C84.1752 15.9917 84.3069 16.5948 84.303 17.2042C84.303 18.9352 83.6301 20.52 81.4472 22.4408C83.3685 25.0701 84.8637 27.1516 86.142 28.605C86.723 29.3926 87.5704 29.954 88.5343 30.1898C88.7304 30.2354 88.9309 30.2599 89.1324 30.2629C89.3118 30.2629 89.3941 30.3286 89.3941 30.4454C89.3941 30.5623 89.2446 30.6865 88.9904 30.6865H86.9345C86.1362 30.7673 85.3314 30.6121 84.6244 30.2409C83.6974 29.7005 82.8751 28.5977 81.6341 26.7937C80.7743 25.5083 79.7725 23.9161 79.4959 23.5583C79.4507 23.5016 79.3909 23.4575 79.3226 23.4306C79.2544 23.4037 79.1801 23.3948 79.1072 23.4049L77.2307 23.3538C77.1186 23.3538 77.0588 23.4049 77.0588 23.5437V23.865C77.0588 26.0561 77.0588 27.8965 77.1634 28.8825C77.2307 29.5617 77.3578 30.073 78.0082 30.1679C78.36 30.2187 78.7144 30.2504 79.0698 30.2629C79.2417 30.2629 79.324 30.3286 79.324 30.4454C79.324 30.5623 79.1745 30.6865 78.8904 30.6865C77.6419 30.6865 76.0421 30.6061 75.7131 30.6061C75.3842 30.6061 73.9488 30.6865 73.0816 30.6865C72.7975 30.6865 72.648 30.6061 72.648 30.4454C72.648 30.2848 72.7377 30.2629 72.9919 30.2629C73.244 30.2596 73.4949 30.2278 73.7395 30.1679C74.1731 30.073 74.2852 29.5617 74.3674 28.8825C74.4796 27.8965 74.4796 26.0415 74.4796 23.8869L74.517 19.7824ZM77.0663 21.6301C77.0663 21.8858 77.1036 21.9807 77.2606 22.0464C77.7902 22.2087 78.3429 22.2876 78.8979 22.2802C79.1685 22.3203 79.4447 22.306 79.7095 22.2382C79.9743 22.1704 80.2222 22.0505 80.4379 21.8858C81.0808 21.3672 81.7088 20.2936 81.7088 18.3728C81.7088 15.0424 79.6754 14.0857 78.397 14.0857C78.0155 14.0658 77.6331 14.0977 77.2606 14.1806C77.1036 14.2244 77.0663 14.3194 77.0663 14.5093V21.6301Z" fill="white"/>
<path d="M92.9028 24.5002C92.7951 24.5002 92.7592 24.5517 92.7162 24.6917L91.5965 28.0718C91.421 28.5437 91.3169 29.0404 91.2879 29.5446C91.2879 29.9643 91.4673 30.281 92.1133 30.281H92.4219C92.6731 30.281 92.7377 30.281 92.7377 30.4651C92.7377 30.6492 92.6157 30.7081 92.386 30.7081C91.7185 30.7081 90.8286 30.6271 90.1826 30.6271C89.953 30.6271 88.819 30.7081 87.7424 30.7081C87.4625 30.7081 87.3477 30.6566 87.3477 30.4651C87.3477 30.2736 87.4266 30.281 87.5917 30.281C87.8055 30.2796 88.019 30.2624 88.2304 30.2294C89.1922 30.0895 89.5869 29.2868 89.996 28.1086L95.2066 13.2258C95.4578 12.5409 95.5799 12.2832 95.7808 12.2832C95.9818 12.2832 96.0966 12.4968 96.2976 13.0196C96.8 14.323 100.116 23.9552 101.451 27.5416C102.233 29.6698 102.836 30.0011 103.267 30.119C103.554 30.1838 103.848 30.2159 104.142 30.2147C104.307 30.2147 104.408 30.2147 104.408 30.3988C104.408 30.5829 104.221 30.6418 103.46 30.6418C102.7 30.6418 101.2 30.6418 99.5345 30.5903C99.1612 30.5903 98.9172 30.5903 98.9172 30.3988C98.9172 30.2073 98.9962 30.2147 99.2043 30.1926C99.2517 30.1698 99.2943 30.1374 99.3294 30.0976C99.3645 30.0577 99.3916 30.011 99.4089 29.9603C99.4263 29.9095 99.4336 29.8558 99.4306 29.8021C99.4275 29.7484 99.414 29.6959 99.3909 29.6477L97.7043 24.6696C97.6612 24.5517 97.6038 24.5002 97.4962 24.5002H92.9028ZM97.1373 23.3293C97.2378 23.3293 97.2593 23.2557 97.2378 23.182L95.3645 17.3497C95.3645 17.2539 95.3215 17.1361 95.2641 17.1361C95.2066 17.1361 95.1636 17.2539 95.142 17.3497L93.2329 23.1599C93.2329 23.2557 93.2329 23.3293 93.319 23.3293H97.1373Z" fill="white"/>
<path d="M106.455 19.7485C106.455 16.1927 106.455 15.5442 106.413 14.7865C106.371 14.0287 106.21 13.6206 105.544 13.4603C105.283 13.4049 105.017 13.3804 104.752 13.3875C104.527 13.3875 104.408 13.3364 104.408 13.1834C104.408 13.0304 104.548 12.9648 104.85 12.9648C105.922 12.9648 107.205 13.0377 107.605 13.0377C108.6 13.0377 109.385 12.9648 110.079 12.9648C113.745 12.9648 114.39 15.2309 114.39 16.4696C114.39 18.3932 113.437 19.5299 112.329 20.5573C113.983 21.2204 116.009 22.8744 116.009 25.6068C116.009 28.1061 114.334 30.7073 110.605 30.7073C110.359 30.7073 109.778 30.6563 109.203 30.6418C108.628 30.6272 107.983 30.5616 107.689 30.5616C107.394 30.5616 106.988 30.5616 106.532 30.5616C106.076 30.5616 105.537 30.6126 105.13 30.6126C104.864 30.6126 104.724 30.5325 104.724 30.3722C104.724 30.2119 104.801 30.19 105.053 30.19C105.289 30.1854 105.524 30.1536 105.754 30.0953C106.154 30.0005 106.259 29.4905 106.336 28.8129C106.441 27.8292 106.441 25.9784 106.441 23.8289L106.455 19.7485ZM108.88 20.142C108.88 20.3242 108.943 20.3752 109.021 20.397C109.337 20.4589 109.659 20.4834 109.981 20.4699C110.239 20.5035 110.501 20.4814 110.751 20.4049C111.001 20.3284 111.232 20.1992 111.432 20.0254C111.73 19.6949 111.959 19.303 112.102 18.875C112.246 18.447 112.302 17.9925 112.266 17.5407C112.266 15.9741 111.481 13.8975 109.735 13.8975C109.513 13.8871 109.289 13.9017 109.07 13.9412C108.922 13.9922 108.88 14.0797 108.88 14.342V20.142ZM111.558 22.0073C111.07 21.6367 110.48 21.4399 109.876 21.4463C109.511 21.4463 109.308 21.4463 108.999 21.4463C108.922 21.4463 108.88 21.4973 108.88 21.6138V27.1443C108.88 28.6817 108.943 29.0825 109.581 29.3885C110.044 29.602 110.548 29.6993 111.053 29.6727C111.972 29.6727 113.507 29.1116 113.507 26.6852C113.539 25.8054 113.379 24.9295 113.039 24.1231C112.699 23.3167 112.188 22.6008 111.544 22.0292" fill="white"/>
<path d="M119.216 19.5226C119.216 16.0852 119.216 15.4583 119.172 14.7258C119.128 13.9932 118.916 13.5777 118.441 13.465C118.203 13.4009 117.957 13.37 117.709 13.3734C117.505 13.3734 117.373 13.3241 117.373 13.155C117.373 12.986 117.541 12.9648 117.878 12.9648C118.682 12.9648 120.013 13.0353 120.628 13.0353C121.242 13.0353 122.405 12.9648 123.202 12.9648C123.488 12.9648 123.649 13.0141 123.649 13.155C123.649 13.2959 123.524 13.3734 123.312 13.3734C123.1 13.3744 122.889 13.398 122.683 13.4438C122.105 13.5565 121.952 13.9369 121.893 14.7258C121.835 15.5147 121.857 16.0852 121.857 19.5226V23.4883C121.857 25.6789 121.857 27.468 121.937 28.4189C122.003 29.0247 122.149 29.4332 122.785 29.5248C123.141 29.5772 123.501 29.6078 123.861 29.6164C124.087 29.6164 124.197 29.6798 124.197 29.7925C124.197 29.9052 124.029 30.0249 123.795 30.0249C122.405 30.0249 121.074 29.9474 120.503 29.9474C119.933 29.9474 118.682 30.0249 117.841 30.0249C117.563 30.0249 117.417 29.9474 117.417 29.7925C117.417 29.6375 117.505 29.6164 117.753 29.6164C118 29.6128 118.245 29.5821 118.485 29.5248C118.909 29.4332 119.033 29.0529 119.099 28.3908C119.209 27.4469 119.209 25.6578 119.209 23.4601L119.216 19.5226Z" fill="white"/>
<path d="M129.75 24.5002C129.65 24.5002 129.614 24.5517 129.571 24.6917L128.444 28.0718C128.269 28.5437 128.165 29.0404 128.136 29.5446C128.136 29.9643 128.322 30.281 128.968 30.281H129.277C129.528 30.281 129.585 30.281 129.585 30.4651C129.585 30.6492 129.463 30.7081 129.233 30.7081C128.573 30.7081 127.684 30.6271 127.038 30.6271C126.809 30.6271 125.675 30.7081 124.592 30.7081C124.319 30.7081 124.197 30.6566 124.197 30.4651C124.197 30.2736 124.283 30.281 124.448 30.281C124.662 30.2793 124.875 30.2621 125.087 30.2294C126.048 30.0895 126.436 29.2868 126.852 28.1086L132.053 13.2258C132.304 12.5409 132.426 12.2832 132.634 12.2832C132.842 12.2832 132.95 12.4968 133.151 13.0196C133.653 14.323 136.967 23.9552 138.294 27.5416C139.084 29.6698 139.686 30.0011 140.117 30.119C140.404 30.1842 140.698 30.2163 140.992 30.2147C141.15 30.2147 141.257 30.2147 141.257 30.3988C141.257 30.5829 141.078 30.6418 140.303 30.6418C139.528 30.6418 138.043 30.6418 136.386 30.5903C136.013 30.5903 135.769 30.5903 135.769 30.3988C135.769 30.2073 135.848 30.2147 136.056 30.1926C136.104 30.1706 136.147 30.1387 136.183 30.0989C136.219 30.0592 136.246 30.0123 136.264 29.9613C136.281 29.9103 136.288 29.8562 136.285 29.8023C136.281 29.7484 136.267 29.6957 136.243 29.6477L134.585 24.6401C134.542 24.5223 134.485 24.4707 134.377 24.4707L129.75 24.5002ZM133.983 23.3293C134.083 23.3293 134.105 23.2557 134.083 23.182L132.218 17.3497C132.218 17.2539 132.182 17.1361 132.118 17.1361C132.053 17.1361 132.01 17.2539 131.996 17.3497L130.087 23.1599C130.087 23.2557 130.087 23.3293 130.173 23.3293H133.983Z" fill="white"/>
<path d="M145.319 27.2484C145.359 29.0843 145.609 29.6841 145.993 29.8596C146.321 29.9798 146.666 30.0343 147.012 30.0205C147.221 30.0205 147.342 30.0205 147.342 30.2034C147.342 30.3863 147.167 30.4448 146.891 30.4448C145.622 30.4448 144.867 30.3643 144.476 30.3643C144.294 30.3643 143.383 30.4448 142.371 30.4448C142.115 30.4448 141.939 30.4448 141.939 30.2034C141.939 29.962 142.054 30.0205 142.256 30.0205C142.55 30.0273 142.843 29.9879 143.127 29.9035C143.639 29.706 143.713 29.0331 143.734 26.9778L143.909 13.0805C143.909 12.6123 143.963 12.2832 144.165 12.2832C144.368 12.2832 144.55 12.5904 144.887 13.0146C145.117 13.3218 148.078 17.1473 150.924 20.5484C152.273 22.1357 154.877 25.5149 155.208 25.8879H155.309L155.113 15.3626C155.113 13.8997 154.917 13.4901 154.439 13.2487C154.105 13.1361 153.755 13.089 153.407 13.1097C153.17 13.1097 153.096 13.0439 153.096 12.8976C153.096 12.7513 153.312 12.6855 153.602 12.6855C154.614 12.6855 155.552 12.7586 155.963 12.7586C156.172 12.7586 156.914 12.6855 157.872 12.6855C158.122 12.6855 158.317 12.6855 158.317 12.8976C158.317 13.1097 158.196 13.1097 157.966 13.1097C157.768 13.1006 157.57 13.1253 157.38 13.1829C156.84 13.3657 156.705 13.8631 156.658 15.1724L156.442 29.9767C156.442 30.4887 156.368 30.7081 156.192 30.7081C156.017 30.7081 155.747 30.4448 155.518 30.1888C154.29 28.7844 151.794 25.7124 149.771 23.2913C147.639 20.7606 145.481 17.8275 145.13 17.3813H145.076L145.319 27.2484Z" fill="white"/>
<path d="M65.0471 20.5059C65.0471 20.5059 65.2664 20.5834 64.5863 20.6962C63.1982 20.8863 61.7982 20.9852 60.3961 20.9922C55.2772 21.112 52.4179 20.0549 51.087 19.3643C49.7645 18.6755 48.5865 17.7555 47.6135 16.6512C47.5438 16.5554 47.46 16.47 47.3648 16.3975C47.3421 16.3858 47.317 16.379 47.2912 16.3773C47.2655 16.3757 47.2397 16.3793 47.2156 16.388C47.1914 16.3966 47.1694 16.4101 47.151 16.4275C47.1326 16.445 47.1183 16.4659 47.1089 16.4891C47.0504 16.6159 47.1089 16.7287 47.2259 16.8696C48.6517 18.844 50.5247 20.4802 52.7031 21.6546C55.6282 23.1909 60.8422 23.5714 65.8661 22.8456L66.1878 22.7962C66.2902 22.9231 64.9008 20.2593 65.0324 20.5059" fill="white"/>
<path d="M71.2782 54.8019C68.8742 52.2577 68.2409 48.9443 68.2409 46.0746C68.2111 43.0645 69.2388 40.1552 71.1148 37.939C72.8786 35.9864 75.2009 34.8031 78.8647 34.8031C80.0574 34.7963 81.2486 34.8952 82.4264 35.0989C83.3594 35.2468 84.1426 35.5131 84.8781 35.6018C85.1505 35.6018 85.2526 35.7793 85.2526 35.9568C85.2526 36.1343 85.1777 36.5485 85.1301 37.584C85.0824 38.6194 85.1301 40.1874 85.0552 40.7791C85.0552 41.2228 84.9802 41.4595 84.7555 41.4595C84.5308 41.4595 84.5103 41.2228 84.5103 40.8086C84.4872 39.8099 84.1509 38.8497 83.5569 38.0869C82.7465 37.0515 80.8329 36.2527 78.5719 36.2527C76.4403 36.2527 75.0374 36.9035 73.9546 38.0869C72.1703 40.069 71.7004 42.8795 71.7004 45.7492C71.7004 52.7902 76.1475 56.2811 79.43 56.2811C81.6228 56.2811 82.944 55.9853 83.9247 54.6244C84.3257 54.0447 84.6088 53.3792 84.7555 52.6719C84.8304 52.1985 84.8781 52.0802 85.0756 52.0802C85.2731 52.0802 85.3003 52.2873 85.3003 52.524C85.1994 53.8472 85.0174 55.1617 84.7555 56.4586C84.7364 56.6524 84.6665 56.8361 84.5543 56.9882C84.4421 57.1402 84.2921 57.2541 84.1222 57.3166C82.6963 57.8198 81.2008 58.05 79.7024 57.997C76.345 57.997 73.5187 57.1095 71.2782 54.7723" fill="white"/>
<path d="M89.5328 46.8862C89.5328 43.5047 89.5328 42.881 89.4879 42.1742C89.443 41.4674 89.2784 41.0655 88.56 40.9061C88.281 40.8598 87.9977 40.8389 87.7143 40.8438C87.4749 40.8438 87.3477 40.7953 87.3477 40.6428C87.3477 40.4904 87.4973 40.4419 87.8266 40.4419C88.4103 40.4419 89.0389 40.4419 89.5703 40.4419C90.1016 40.4419 90.6329 40.4835 90.9323 40.4835C91.6282 40.4835 95.9312 40.4835 96.3428 40.4835C96.6547 40.4568 96.9646 40.4129 97.2708 40.3518C97.3838 40.309 97.5018 40.2787 97.6225 40.2617C97.7273 40.2617 97.7497 40.3518 97.7497 40.4627C97.6661 40.9401 97.6086 41.4212 97.5776 41.904C97.5776 42.1326 97.5103 43.1097 97.4654 43.373C97.4654 43.4839 97.398 43.6155 97.2484 43.6155C97.0987 43.6155 97.0538 43.5047 97.0538 43.3037C97.0543 43.0337 97.0114 42.7651 96.9266 42.5068C96.7769 42.1119 96.5524 41.8139 95.4748 41.71C95.1081 41.6614 92.8406 41.6199 92.4065 41.6199C92.3017 41.6199 92.2568 41.6822 92.2568 41.8416V47.4613C92.2568 47.6138 92.2568 47.7039 92.4065 47.7039C92.8855 47.7039 95.3999 47.7039 95.8639 47.6623C96.3279 47.6207 96.7095 47.5514 96.9041 47.3227C97.0987 47.0941 97.1361 47.0386 97.2484 47.0386C97.3606 47.0386 97.398 47.0802 97.398 47.2188C97.398 47.3574 97.3157 47.7039 97.2334 48.8403C97.2334 49.2837 97.1361 50.1776 97.1361 50.3301C97.1361 50.4825 97.1361 50.7528 96.949 50.7528C96.7619 50.7528 96.7544 50.6627 96.7544 50.5518C96.7433 50.2847 96.7133 50.0185 96.6646 49.7549C96.5524 49.3045 96.253 48.9789 95.4598 48.8818C95.0482 48.8403 92.9004 48.8195 92.3841 48.8195C92.2793 48.8195 92.2568 48.9026 92.2568 49.0412V50.7943C92.2568 51.5427 92.2568 53.5661 92.2568 54.259C92.3017 55.7904 92.646 56.123 94.8536 56.123C95.5427 56.1664 96.2338 56.0743 96.8817 55.8528C97.4429 55.5895 97.7048 55.1252 97.8545 54.2105C97.8994 53.968 97.9443 53.8779 98.094 53.8779C98.2437 53.8779 98.2661 54.0581 98.2661 54.2798C98.2296 55.1066 98.1371 55.9305 97.9892 56.7467C97.8396 57.3218 97.6375 57.3218 96.8143 57.3218C95.1979 57.3218 94.008 57.2802 93.0725 57.2525C92.1371 57.2248 91.4636 57.1901 90.8275 57.1901C90.5805 57.1901 90.0791 57.1901 89.5852 57.1901C89.0913 57.1901 88.53 57.2317 88.0885 57.2317C87.8041 57.2317 87.6545 57.1694 87.6545 57.0169C87.6545 56.8645 87.7368 56.8368 87.9912 56.8368C88.2563 56.8391 88.5205 56.8088 88.777 56.7467C89.211 56.6566 89.3158 56.1715 89.3981 55.5271C89.5104 54.5916 89.5104 52.8385 89.5104 50.7943L89.5328 46.8862Z" fill="white"/>
<path d="M102.054 53.9897C102.099 55.7583 102.387 56.3431 102.811 56.5052C103.18 56.6171 103.567 56.6695 103.955 56.6602C104.198 56.6602 104.326 56.7025 104.326 56.8434C104.326 56.9843 104.129 57.0619 103.819 57.0619C102.402 57.0619 101.546 56.9984 101.107 56.9984C100.91 56.9984 99.8793 57.0619 98.7505 57.0619C98.4626 57.0619 98.2656 57.0618 98.2656 56.8434C98.2656 56.625 98.3944 56.6602 98.6141 56.6602C98.9463 56.663 99.2775 56.6251 99.599 56.5475C100.167 56.3643 100.258 55.709 100.281 53.729L100.478 40.3411C100.478 39.8901 100.538 39.5801 100.758 39.5801C100.978 39.5801 101.198 39.869 101.569 40.2847C101.826 40.5806 105.16 44.2729 108.387 47.5424C109.902 49.0784 112.827 52.3268 113.198 52.6932H113.304L113.092 42.5466C113.092 41.1373 112.872 40.7427 112.334 40.5172C111.958 40.4027 111.563 40.3549 111.168 40.3763C110.91 40.3763 110.819 40.3129 110.819 40.179C110.819 40.0451 111.062 39.9747 111.395 39.9747C112.531 39.9747 113.577 40.0381 114.039 40.0381C114.274 40.0381 115.107 39.9747 116.183 39.9747C116.471 39.9747 116.691 39.9747 116.691 40.179C116.691 40.3834 116.554 40.3763 116.289 40.3763C116.069 40.3668 115.849 40.3906 115.637 40.4468C115.024 40.63 114.88 41.1021 114.827 42.3704L114.584 56.6179C114.584 57.1182 114.493 57.3226 114.304 57.3226C114.115 57.3226 113.796 57.076 113.546 56.8293C112.175 55.4694 109.365 52.51 107.092 50.1847C104.713 47.7467 102.273 44.9211 101.879 44.4913H101.819L102.054 53.9897Z" fill="white"/>
<path d="M122.405 41.8101L119.394 41.9C118.228 41.9484 117.739 42.059 117.432 42.5428C117.285 42.7855 117.17 43.0457 117.09 43.317C117.055 43.4968 116.999 43.5866 116.873 43.5866C116.747 43.5866 116.691 43.476 116.691 43.2341C116.691 42.8747 117.076 40.8631 117.117 40.6834C117.173 40.3931 117.236 40.2617 117.362 40.2617C117.488 40.2617 117.718 40.4829 118.228 40.5244C118.898 40.5982 119.572 40.6351 120.247 40.635H128.237C128.705 40.6378 129.172 40.6008 129.634 40.5244C129.813 40.4779 129.995 40.441 130.179 40.4138C130.319 40.4138 130.339 40.5451 130.339 40.8769C130.339 41.347 130.277 42.8747 130.277 43.4553C130.277 43.6696 130.214 43.8078 130.095 43.8078C129.976 43.8078 129.892 43.6972 129.872 43.3654V43.1166C129.83 42.5429 129.285 41.9276 127.49 41.8792L124.947 41.8101V50.9001C124.947 52.9738 124.947 54.6881 125.045 55.6421C125.108 56.2642 125.234 56.755 125.834 56.8379C126.176 56.893 126.522 56.9231 126.868 56.9278C127.085 56.9278 127.189 56.9969 127.189 57.1075C127.189 57.2181 127.022 57.3218 126.805 57.3218C125.471 57.3218 124.2 57.2596 123.634 57.2596C123.068 57.2596 121.902 57.3218 121.092 57.3218C120.826 57.3218 120.687 57.2596 120.687 57.1075C120.687 56.9554 120.763 56.9278 121.008 56.9278C121.255 56.9294 121.502 56.8992 121.741 56.8379C122.139 56.755 122.258 56.2642 122.321 55.6213C122.426 54.6881 122.426 52.9393 122.426 50.9001L122.405 41.8101Z" fill="white"/>
<path d="M135.947 49.0412V50.7943C135.947 51.5427 135.947 53.5661 135.947 54.259C135.992 55.7904 136.335 56.123 138.537 56.123C139.224 56.1669 139.913 56.0748 140.559 55.8528C141.119 55.5895 141.38 55.1252 141.529 54.2105C141.574 53.968 141.619 53.8779 141.768 53.8779C141.918 53.8779 141.94 54.0581 141.94 54.2798C141.904 55.1066 141.811 55.9305 141.664 56.7467C141.515 57.3218 141.321 57.3218 140.5 57.3218C138.88 57.3218 137.701 57.2802 136.768 57.2525C135.835 57.2248 135.171 57.1901 134.529 57.1901C134.29 57.1901 133.783 57.1901 133.298 57.1901C132.813 57.1901 132.238 57.2317 131.805 57.2317C131.522 57.2317 131.372 57.1694 131.372 57.0169C131.372 56.8645 131.454 56.8368 131.716 56.8368C131.967 56.8361 132.218 56.8058 132.462 56.7467C132.895 56.6635 132.999 56.1715 133.089 55.5271C133.201 54.5916 133.201 52.8385 133.201 50.7943V46.8862C133.201 43.5047 133.201 42.881 133.148 42.1742C133.096 41.4674 132.939 41.0655 132.223 40.9061C131.947 40.8598 131.667 40.8389 131.387 40.8438C131.148 40.8438 131.021 40.7953 131.021 40.6428C131.021 40.4904 131.163 40.4419 131.492 40.4419C132.074 40.4419 132.701 40.4419 133.238 40.4419C133.775 40.4419 134.298 40.4835 134.596 40.4835C135.29 40.4835 139.574 40.4835 139.985 40.4835C140.298 40.4561 140.609 40.4122 140.918 40.3518C141.028 40.3113 141.143 40.2812 141.261 40.2617C141.365 40.2617 141.388 40.3518 141.388 40.4627C141.388 40.5735 141.283 40.8854 141.216 41.904C141.216 42.1326 141.149 43.1097 141.112 43.373C141.112 43.4839 141.044 43.6155 140.888 43.6155C140.731 43.6155 140.694 43.5047 140.694 43.3037C140.697 43.034 140.657 42.7653 140.574 42.5068C140.417 42.1119 140.201 41.8139 139.126 41.71C138.761 41.6614 136.492 41.6199 136.059 41.6199C135.955 41.6199 135.91 41.6822 135.91 41.8347V49.0412H135.947Z" fill="white"/>
<path d="M144.118 46.8125C144.118 43.3838 144.118 42.7515 144.073 42.0349C144.028 41.3182 143.849 40.9107 143.14 40.7491C142.865 40.6996 142.585 40.6761 142.305 40.6789C142.066 40.6789 141.939 40.6367 141.939 40.4821C141.939 40.3276 142.081 40.2784 142.409 40.2784C143.551 40.2784 144.908 40.3416 145.393 40.3416C146.139 40.3416 147.765 40.2784 148.437 40.2784C149.835 40.1798 151.228 40.5208 152.398 41.248C152.867 41.6311 153.243 42.1049 153.5 42.6371C153.758 43.1693 153.891 43.7475 153.89 44.3323C153.89 45.9975 153.226 47.5291 151.048 49.3769C152.965 51.8992 154.449 53.9086 155.725 55.2998C156.306 56.0669 157.161 56.6108 158.134 56.8314C158.333 56.8718 158.535 56.8953 158.738 56.9017C158.918 56.9017 159 56.9719 159 57.0843C159 57.1968 158.843 57.3021 158.589 57.3021H156.538C155.744 57.3789 154.943 57.2296 154.24 56.8736C153.308 56.3607 152.495 55.2998 151.257 53.5714C150.399 52.3278 149.414 50.8032 149.131 50.4589C149.086 50.4031 149.027 50.3594 148.959 50.3322C148.891 50.3051 148.816 50.2954 148.743 50.3043L146.855 50.2552C146.758 50.2552 146.691 50.3043 146.691 50.4308V50.747C146.691 52.8547 146.691 54.6253 146.803 55.5738C146.855 56.2272 146.997 56.726 147.646 56.8103C147.994 56.8623 148.346 56.8928 148.698 56.9017C148.869 56.9017 148.959 56.9719 148.959 57.0843C148.959 57.1968 148.802 57.3021 148.526 57.3021C147.273 57.3021 145.677 57.2389 145.356 57.2389C145.035 57.2389 143.588 57.3021 142.73 57.3021C142.447 57.3021 142.298 57.2389 142.298 57.0843C142.298 56.9298 142.38 56.9017 142.633 56.9017C142.897 56.904 143.161 56.8733 143.416 56.8103C143.849 56.726 143.961 56.2272 144.043 55.5738C144.155 54.6253 144.155 52.8477 144.155 50.7751L144.118 46.8125ZM146.654 48.59C146.654 48.8359 146.699 48.9343 146.848 48.9975C147.379 49.1543 147.933 49.2302 148.489 49.2224C148.758 49.2598 149.033 49.2449 149.296 49.1784C149.559 49.1119 149.805 48.9954 150.018 48.8359C150.66 48.3441 151.294 47.3043 151.294 45.4565C151.294 42.2597 149.257 41.3323 147.989 41.3323C147.606 41.3147 147.222 41.3478 146.848 41.4306C146.699 41.4728 146.654 41.5571 146.654 41.7468V48.59Z" fill="white"/>
</svg>