<svg width="185" height="58" viewBox="0 0 185 58" fill="none" xmlns="http://www.w3.org/2000/svg">
<path d="M65.3359 38.1826H64.5181V42.8749H65.3359V38.1826Z" fill="#0092D4"/>
<path d="M71.7061 38.1826H72.5711L74.7154 41.6429H74.7259V38.1826H75.5123V42.8802H74.6473L72.5082 39.4199H72.4872V42.8802H71.7061V38.1826Z" fill="#0092D4"/>
<path d="M81.8823 38.183H83.8274C84.1892 38.183 84.4985 38.2459 84.7659 38.3665C85.0228 38.4923 85.2377 38.6601 85.4055 38.8698C85.568 39.0795 85.6991 39.3312 85.7777 39.6143C85.8616 39.9026 85.9036 40.2067 85.9036 40.5318C85.9036 40.8568 85.8616 41.1661 85.7777 41.444C85.6991 41.7324 85.568 41.984 85.4055 42.1885C85.2377 42.3982 85.0228 42.5765 84.7659 42.6918C84.4985 42.8124 84.1892 42.8753 83.8274 42.8753H81.8823V38.1777V38.183ZM82.7055 42.2095H83.5128C83.8274 42.2095 84.0896 42.1675 84.2993 42.0784C84.4985 41.9997 84.661 41.8739 84.7711 41.7219C84.8917 41.5698 84.9651 41.3968 85.007 41.1976C85.049 40.9826 85.07 40.7624 85.07 40.5318C85.07 40.3011 85.0542 40.0704 85.007 39.8712C84.9651 39.6667 84.8865 39.4937 84.7711 39.3364C84.661 39.1896 84.4985 39.0638 84.2993 38.9799C84.0896 38.8908 83.8274 38.8488 83.5128 38.8488H82.7055V42.2042V42.2095Z" fill="#0092D4"/>
<path d="M91.9746 38.1826H92.7977V40.9194C92.7977 41.0819 92.7977 41.2339 92.8187 41.4017C92.8344 41.5642 92.8816 41.711 92.955 41.8316C93.0284 41.9627 93.1333 42.0675 93.2801 42.1514C93.4269 42.2353 93.6366 42.2825 93.904 42.2825C94.1714 42.2825 94.3811 42.2353 94.5226 42.1514C94.6747 42.0728 94.7795 41.9627 94.8529 41.8316C94.9263 41.7058 94.9683 41.5642 94.9892 41.4017C95.005 41.2339 95.0102 41.0819 95.0102 40.9194V38.1826H95.8333V41.1815C95.8333 41.4908 95.7914 41.7477 95.697 41.9784C95.6079 42.1986 95.4716 42.3874 95.3038 42.5342C95.136 42.6914 94.9316 42.8015 94.7009 42.8749C94.4597 42.9483 94.2028 42.985 93.9092 42.985C93.6156 42.985 93.3587 42.9536 93.1175 42.8749C92.8816 42.8015 92.6771 42.6914 92.5094 42.5342C92.3416 42.3874 92.2105 42.1986 92.1214 41.9784C92.0323 41.7477 91.9851 41.4908 91.9851 41.1815V38.1826H91.9746Z" fill="#0092D4"/>
<path d="M102.712 41.318C102.712 41.4963 102.738 41.6431 102.801 41.7742C102.864 41.9052 102.948 42.0101 103.058 42.094C103.168 42.1674 103.294 42.2303 103.436 42.267C103.577 42.2984 103.735 42.3247 103.897 42.3247C104.075 42.3247 104.233 42.2984 104.364 42.2565C104.495 42.2198 104.589 42.1674 104.673 42.094C104.752 42.0311 104.809 41.9577 104.846 41.8685C104.883 41.7846 104.898 41.6903 104.898 41.6064C104.898 41.4229 104.856 41.2918 104.778 41.2079C104.694 41.124 104.605 41.0611 104.51 41.0244C104.343 40.9615 104.154 40.9091 103.923 40.8462C103.708 40.7937 103.436 40.7256 103.105 40.6365C102.906 40.5788 102.738 40.5106 102.607 40.4268C102.471 40.3376 102.371 40.2485 102.287 40.1384C102.204 40.0283 102.151 39.9287 102.12 39.8029C102.088 39.6823 102.067 39.5617 102.067 39.4411C102.067 39.1999 102.12 38.9955 102.214 38.8225C102.314 38.6494 102.445 38.5079 102.607 38.3873C102.77 38.272 102.953 38.1933 103.158 38.1356C103.368 38.0832 103.577 38.0518 103.782 38.0518C104.028 38.0518 104.264 38.0885 104.474 38.1514C104.694 38.2195 104.883 38.3087 105.045 38.445C105.213 38.5656 105.344 38.7176 105.438 38.9063C105.533 39.0951 105.585 39.31 105.585 39.5564H104.757C104.741 39.2576 104.636 39.0427 104.448 38.9168C104.264 38.791 104.033 38.7333 103.745 38.7333C103.651 38.7333 103.546 38.7386 103.451 38.7543C103.347 38.7805 103.263 38.8172 103.174 38.8592C103.095 38.9011 103.021 38.964 102.969 39.0426C102.911 39.1213 102.885 39.2209 102.885 39.3467C102.885 39.5093 102.938 39.6351 103.037 39.7347C103.137 39.8291 103.273 39.8972 103.441 39.9497C103.457 39.9497 103.525 39.9706 103.651 40.0021C103.771 40.0388 103.908 40.0755 104.054 40.1069C104.201 40.1489 104.353 40.1856 104.495 40.2223C104.636 40.2642 104.741 40.2904 104.804 40.3062C104.956 40.3534 105.092 40.4215 105.202 40.5054C105.318 40.5893 105.412 40.6837 105.491 40.7938C105.564 40.9039 105.622 41.0192 105.664 41.1345C105.695 41.2604 105.716 41.3862 105.716 41.5068C105.716 41.7742 105.664 41.9944 105.559 42.1779C105.449 42.3666 105.307 42.5239 105.129 42.6445C104.956 42.7598 104.757 42.8489 104.531 42.9014C104.306 42.959 104.075 42.98 103.85 42.98C103.577 42.98 103.326 42.9538 103.09 42.8856C102.848 42.8175 102.644 42.7231 102.471 42.5815C102.298 42.4452 102.156 42.2722 102.052 42.0573C101.947 41.8371 101.894 41.5907 101.884 41.3075H102.712V41.318Z" fill="#0092D4"/>
<path d="M111.379 38.1826H115.185V38.8904H113.691V42.8802H112.868V38.8904H111.379V38.1826Z" fill="#0092D4"/>
<path d="M121.12 38.1826H123.364C123.877 38.1826 124.265 38.2822 124.527 38.5077C124.784 38.7384 124.915 39.0529 124.915 39.4461C124.915 39.6663 124.879 39.8551 124.816 40.0019C124.748 40.1487 124.674 40.2745 124.585 40.3584C124.501 40.4528 124.417 40.5157 124.328 40.5629C124.244 40.5996 124.176 40.6205 124.139 40.6363V40.652C124.213 40.652 124.292 40.6834 124.37 40.7201C124.449 40.7516 124.522 40.804 124.596 40.8827C124.664 40.9561 124.721 41.0609 124.769 41.1815C124.821 41.3073 124.842 41.4594 124.842 41.6376C124.842 41.9155 124.863 42.1724 124.905 42.3926C124.947 42.618 125.01 42.7806 125.094 42.8749H124.213C124.155 42.7701 124.119 42.66 124.108 42.5394C124.098 42.4136 124.092 42.3035 124.092 42.1881C124.092 41.9732 124.077 41.7897 124.05 41.6271C124.024 41.4751 123.977 41.344 123.909 41.2392C123.835 41.1396 123.741 41.0609 123.615 41.019C123.5 40.9666 123.343 40.9456 123.159 40.9456H121.943V42.8749H121.12V38.1826ZM121.943 40.3164H123.295C123.563 40.3164 123.757 40.2588 123.898 40.1329C124.035 40.0019 124.098 39.8184 124.098 39.5667C124.098 39.4147 124.071 39.2993 124.035 39.205C123.987 39.1106 123.93 39.0372 123.856 38.9795C123.778 38.9271 123.694 38.8904 123.589 38.8747C123.489 38.8642 123.39 38.8485 123.28 38.8485H121.943V40.3164Z" fill="#0092D4"/>
<path d="M131.972 38.1826H131.149V42.8749H131.972V38.1826Z" fill="#0092D4"/>
<path d="M138.368 38.1826H141.755V38.8904H139.191V40.1172H141.561V40.7883H139.191V42.1724H141.797V42.8802H138.368V38.1826Z" fill="#0092D4"/>
<path d="M148.45 41.318C148.45 41.4963 148.482 41.6431 148.545 41.7742C148.608 41.9052 148.691 42.0101 148.796 42.094C148.912 42.1674 149.038 42.2303 149.179 42.267C149.321 42.2984 149.473 42.3247 149.64 42.3247C149.824 42.3247 149.976 42.2984 150.102 42.2565C150.228 42.2198 150.332 42.1674 150.411 42.094C150.49 42.0311 150.547 41.9577 150.584 41.8685C150.616 41.7846 150.637 41.6903 150.637 41.6064C150.637 41.4229 150.595 41.2918 150.516 41.2079C150.432 41.124 150.343 41.0611 150.249 41.0244C150.081 40.9615 149.892 40.9091 149.667 40.8462C149.446 40.7937 149.174 40.7256 148.844 40.6365C148.644 40.5788 148.477 40.5106 148.34 40.4268C148.209 40.3376 148.104 40.2485 148.026 40.1384C147.947 40.0283 147.884 39.9287 147.858 39.8029C147.821 39.6823 147.805 39.5617 147.805 39.4411C147.805 39.1999 147.858 38.9955 147.957 38.8225C148.057 38.6494 148.183 38.5079 148.351 38.3873C148.513 38.272 148.697 38.1933 148.901 38.1356C149.106 38.0832 149.315 38.0518 149.525 38.0518C149.772 38.0518 150.002 38.0885 150.222 38.1514C150.437 38.2195 150.631 38.3087 150.799 38.445C150.967 38.5656 151.098 38.7176 151.187 38.9063C151.287 39.0951 151.339 39.31 151.339 39.5564H150.516C150.49 39.2576 150.39 39.0427 150.201 38.9168C150.018 38.791 149.787 38.7333 149.494 38.7333C149.405 38.7333 149.305 38.7386 149.2 38.7543C149.1 38.7805 149.011 38.8172 148.922 38.8592C148.844 38.9011 148.77 38.964 148.712 39.0426C148.66 39.1213 148.634 39.2209 148.634 39.3467C148.634 39.5093 148.681 39.6351 148.791 39.7347C148.891 39.8291 149.022 39.8972 149.19 39.9497C149.211 39.9497 149.279 39.9706 149.399 40.0021C149.52 40.0388 149.656 40.0755 149.803 40.1069C149.955 40.1489 150.097 40.1856 150.243 40.2223C150.39 40.2642 150.49 40.2904 150.553 40.3062C150.705 40.3534 150.841 40.4215 150.951 40.5054C151.066 40.5893 151.161 40.6837 151.24 40.7938C151.318 40.9039 151.376 41.0192 151.407 41.1345C151.439 41.2604 151.465 41.3862 151.465 41.5068C151.465 41.7742 151.407 41.9944 151.302 42.1779C151.198 42.3666 151.051 42.5239 150.878 42.6445C150.699 42.7598 150.5 42.8489 150.28 42.9014C150.06 42.959 149.829 42.98 149.599 42.98C149.331 42.98 149.085 42.9538 148.844 42.8856C148.602 42.8175 148.403 42.7231 148.225 42.5815C148.047 42.4452 147.905 42.2722 147.8 42.0573C147.695 41.8371 147.638 41.5907 147.638 41.3075H148.461L148.45 41.318Z" fill="#0092D4"/>
<path d="M162.029 38.1826H162.852V42.1724H165.238V42.8802H162.029V38.1826Z" fill="#0092D4"/>
<path d="M171.199 38.1826H172.022V42.1724H174.413V42.8802H171.199V38.1826Z" fill="#0092D4"/>
<path d="M183.541 39.6664C183.509 39.5301 183.457 39.4095 183.399 39.2994C183.336 39.1841 183.258 39.0897 183.158 39.0006C183.064 38.9167 182.948 38.8486 182.822 38.8066C182.691 38.7542 182.539 38.7385 182.366 38.7385C182.12 38.7385 181.9 38.7856 181.716 38.8905C181.533 38.9901 181.391 39.1317 181.271 39.2994C181.155 39.462 181.071 39.656 181.019 39.8709C180.967 40.0806 180.94 40.3008 180.94 40.5263C180.94 40.7517 180.967 40.9719 181.019 41.1764C181.071 41.3966 181.161 41.5853 181.271 41.7583C181.386 41.9261 181.533 42.0677 181.716 42.1673C181.9 42.2616 182.12 42.3193 182.366 42.3193C182.555 42.3193 182.712 42.2826 182.849 42.2249C182.99 42.162 183.106 42.0729 183.21 41.9576C183.31 41.8422 183.394 41.7164 183.452 41.5696C183.509 41.4228 183.546 41.2603 183.567 41.0872H184.369C184.353 41.3599 184.29 41.622 184.191 41.8579C184.091 42.0939 183.95 42.2878 183.777 42.4609C183.598 42.6234 183.394 42.7597 183.158 42.8488C182.922 42.9484 182.66 42.9851 182.372 42.9851C182.015 42.9851 181.706 42.9222 181.428 42.7964C181.15 42.6653 180.909 42.4871 180.72 42.2616C180.526 42.0414 180.374 41.7793 180.274 41.4857C180.17 41.1816 180.117 40.8618 180.117 40.5315C180.117 40.2012 180.17 39.8814 180.274 39.5826C180.379 39.2732 180.526 39.0216 180.72 38.8014C180.909 38.5759 181.15 38.3977 181.428 38.2666C181.706 38.1355 182.015 38.0674 182.372 38.0674C182.634 38.0674 182.891 38.1093 183.116 38.1827C183.347 38.2509 183.551 38.3557 183.729 38.492C183.913 38.6336 184.055 38.8066 184.165 38.9954C184.275 39.1946 184.343 39.42 184.369 39.6717H183.546L183.541 39.6664Z" fill="#0092D4"/>
<path d="M93.2749 31.1419H88.2156L87.4868 33.3963H85.1328L89.0387 21.6733H92.3784L96.3367 33.3963H94.0246L93.2801 31.1419H93.2749ZM92.7611 29.5061L90.7321 23.3982L88.7399 29.5061H92.7611Z" fill="#00365C"/>
<path d="M118.073 21.6732V33.3909H114.303L110.948 26.9632C110.786 26.6434 110.523 26.0772 110.172 25.2803L109.795 24.4414L109.422 23.5921H109.339L109.37 24.368L109.396 25.1335L109.407 26.6696V33.3909H107.189V21.6732H110.959L114.01 27.6133C114.277 28.1428 114.592 28.7877 114.943 29.5322L115.389 30.4864L115.84 31.4458H115.913L115.887 30.6856L115.866 29.9307L115.85 28.4207V21.668H118.073V21.6732Z" fill="#00365C"/>
<path d="M134.656 23.6709V33.391H132.428V23.6709H129.046V21.6733H138.153V23.6709H134.656Z" fill="#00365C"/>
<path d="M184.5 21.6733V33.391H182.282V27.0053C182.282 26.4915 182.288 25.9148 182.324 25.2699L182.366 24.3944L182.408 23.5293H182.335L182.067 24.3472L181.81 25.1598C181.569 25.8886 181.386 26.4391 181.249 26.7851L178.675 33.391H176.646L174.046 26.8428C173.904 26.4758 173.716 25.941 173.48 25.2122L173.212 24.3944L172.945 23.587H172.877L172.919 24.4415L172.966 25.2961C172.992 25.962 173.013 26.5334 173.013 27.0053V33.391H170.79V21.6733H174.413L176.51 27.1049C176.651 27.4771 176.84 28.0171 177.076 28.7249L177.338 29.5376L177.6 30.3502H177.674L177.926 29.5376L178.177 28.7302C178.387 28.0486 178.576 27.5138 178.728 27.1154L180.788 21.6733H184.49H184.5Z" fill="#00365C"/>
<path d="M66.7463 28.7569C66.7463 30.2249 67.9364 31.4097 69.4096 31.4097C70.8828 31.4097 72.0625 30.2301 72.0625 28.7569V21.6738H74.275V28.7464C74.275 31.4412 72.0835 33.617 69.3939 33.617C66.7043 33.617 64.5181 31.4412 64.5181 28.7464V21.6738H66.7515V28.7569H66.7463Z" fill="#00365C"/>
<path d="M149.2 28.7459V21.6733H151.434V28.7564C151.434 30.2244 152.624 31.404 154.087 31.404C155.549 31.404 156.739 30.2244 156.739 28.7564V21.6733H158.957V28.7459C158.957 31.4407 156.766 33.6165 154.071 33.6165C151.376 33.6165 149.2 31.4407 149.2 28.7459Z" fill="#00365C"/>
<mask id="mask0_4634_6789" style="mask-type:luminance" maskUnits="userSpaceOnUse" x="0" y="0" width="56" height="58">
<path d="M0.34082 27.6659C0.34082 42.912 12.7453 55.3165 27.9967 55.3165C32.3377 55.3165 36.5005 54.3361 40.3645 52.3963L40.4693 52.3438L46.0896 57.9746H49.2668L40.8835 49.5966H40.5427C39.8822 49.9846 39.295 50.4721 38.6081 50.7867C35.2632 52.3281 31.6981 53.1093 27.9967 53.1093C13.9669 53.1093 2.55329 41.7009 2.55329 27.6711C2.55329 20.8712 5.20091 14.4278 10.0086 9.53622C14.8425 4.61846 21.2282 1.91317 27.9967 1.91317C34.7652 1.91317 41.1457 4.61846 45.9743 9.53622C50.7872 14.4278 53.4348 20.8712 53.4348 27.6711C53.4348 32.1065 52.2709 36.4791 50.0585 40.3168L51.3429 41.9263H51.6732C54.2789 37.6272 55.6473 32.699 55.6473 27.6659C55.6473 12.4198 43.2428 0.0205078 27.9967 0.0205078C12.7506 0.0205078 0.34082 12.4198 0.34082 27.6659Z" fill="white"/>
</mask>
<g mask="url(#mask0_4634_6789)">
<path d="M27.9984 -27.6336L-28.6333 28.998L27.9984 85.6297L84.6301 28.998L27.9984 -27.6336Z" fill="url(#paint0_linear_4634_6789)"/>
</g>
<mask id="mask1_4634_6789" style="mask-type:luminance" maskUnits="userSpaceOnUse" x="12" y="11" width="54" height="47">
<path d="M12.2469 27.6659C12.2469 36.348 19.309 43.4101 27.9964 43.4101C33.0347 43.4101 37.8109 40.9617 40.7679 36.8513L40.8832 36.6941L62.1586 57.9747H65.3305L40.3956 33.066H40.0601C39.7508 33.7476 39.6302 34.6074 39.216 35.2208C36.689 38.959 32.4947 41.1976 27.9964 41.1976C20.5358 41.1976 14.4647 35.1265 14.4647 27.6607C14.4647 20.1949 20.5358 14.1342 27.9964 14.1342C35.4569 14.1342 41.5228 20.2054 41.5228 27.6607C41.5228 28.8875 41.3603 30.0986 41.03 31.2782L42.4613 33.0346H42.7864C43.4155 31.3044 43.7353 29.4957 43.7353 27.6607C43.7353 18.9786 36.6732 11.9165 27.9911 11.9165C19.309 11.9165 12.2417 18.9786 12.2417 27.6607" fill="white"/>
</mask>
<g mask="url(#mask1_4634_6789)">
<path d="M38.7903 -14.6189L-10.7754 34.9468L38.7903 84.5125L88.356 34.9468L38.7903 -14.6189Z" fill="url(#paint1_linear_4634_6789)"/>
</g>
<mask id="mask2_4634_6789" style="mask-type:luminance" maskUnits="userSpaceOnUse" x="4" y="3" width="51" height="55">
<path d="M4.29932 27.6659C4.29932 40.7363 14.9317 51.3687 27.9968 51.3687C32.5529 51.3687 36.9778 50.058 40.8103 47.5939L40.9204 47.5205L51.3798 57.9799H54.5412L41.1878 44.6212H40.847C40.2493 45.0826 39.7722 45.654 39.1536 46.0263C35.7929 48.071 31.9394 49.1562 27.9968 49.1562C16.1481 49.1562 6.50654 39.5199 6.50654 27.6712C6.50654 15.8224 16.1481 6.1861 27.9968 6.1861C39.8456 6.1861 49.4767 15.8224 49.4767 27.6712C49.4767 31.0947 48.6903 34.3662 47.1436 37.4071L48.4438 39.0481L48.7741 39.0376C50.6825 35.5564 51.6944 31.6347 51.6944 27.6712C51.6944 14.6061 41.0672 3.97363 27.9968 3.97363C14.9265 3.97363 4.29932 14.6061 4.29932 27.6712" fill="white"/>
</mask>
<g mask="url(#mask2_4634_6789)">
<path d="M29.4162 -21.153L-22.7075 30.9707L29.4162 83.0944L81.5398 30.9707L29.4162 -21.153Z" fill="url(#paint2_linear_4634_6789)"/>
</g>
<mask id="mask3_4634_6789" style="mask-type:luminance" maskUnits="userSpaceOnUse" x="8" y="7" width="52" height="51">
<path d="M8.29382 27.666C8.29382 38.5291 17.1332 47.3633 27.9963 47.3633C32.7935 47.3633 37.4229 45.6069 41.0247 42.4193L41.1401 42.3144L56.8109 57.9695H59.9775L41.1558 39.1635H40.8203C40.3379 39.7035 39.9919 40.3851 39.4466 40.8622C36.2642 43.6304 32.1958 45.1508 27.9963 45.1508C18.3548 45.1508 10.5115 37.3076 10.5115 27.666C10.5115 18.0245 18.3548 10.1812 27.9963 10.1812C37.6379 10.1812 45.4811 18.0245 45.4811 27.666C45.4811 29.9833 45.0198 32.243 44.1285 34.3873L45.4759 36.0598H45.8009C47.054 33.4174 47.6883 30.5968 47.6883 27.666C47.6883 16.8081 38.8542 7.96875 27.9911 7.96875C17.128 7.96875 8.28857 16.8029 8.28857 27.666" fill="white"/>
</mask>
<g mask="url(#mask3_4634_6789)">
<path d="M34.1411 -17.8725L-16.7036 32.9722L34.1411 83.8168L84.9858 32.9722L34.1411 -17.8725Z" fill="url(#paint3_linear_4634_6789)"/>
</g>
<mask id="mask4_4634_6789" style="mask-type:luminance" maskUnits="userSpaceOnUse" x="0" y="0" width="56" height="58">
<path d="M0 27.6659C0 42.912 12.4045 55.3165 27.6559 55.3165C32.0022 55.3165 36.165 54.3361 40.0237 52.3963L40.1285 52.3438L45.7488 57.9746H48.9207L40.5375 49.5966C39.8035 50.0317 39.038 50.4302 38.2568 50.7867C34.9224 52.3281 31.352 53.1093 27.6506 53.1093C13.6261 53.1093 2.21247 41.7009 2.21247 27.6711C2.21247 20.8712 4.86009 14.4278 9.673 9.53622C14.5016 4.61846 20.8874 1.91317 27.6559 1.91317C34.4243 1.91317 40.8101 4.61846 45.6387 9.53622C50.4516 14.4278 53.094 20.8712 53.094 27.6711C53.094 32.1065 51.9301 36.4791 49.7176 40.3168L51.3324 41.9316C53.9329 37.6272 55.3065 32.699 55.3065 27.6659C55.3065 12.4198 42.902 0.0205078 27.6559 0.0205078C12.4098 0.0205078 0 12.4198 0 27.6659Z" fill="white"/>
</mask>
<g mask="url(#mask4_4634_6789)">
<path d="M23.6269 -27.3434L-28.6748 33.2061L31.6683 85.3296L83.97 24.7802L23.6269 -27.3434Z" fill="url(#paint4_linear_4634_6789)"/>
</g>
<mask id="mask5_4634_6789" style="mask-type:luminance" maskUnits="userSpaceOnUse" x="11" y="11" width="54" height="47">
<path d="M11.9061 27.6658C11.9061 36.3479 18.9734 43.41 27.6503 43.41C32.6887 43.41 37.4649 40.9616 40.4271 36.8512L40.5424 36.6939L61.8178 57.9745H64.9897L40.0601 33.0659C39.7298 33.8209 39.3313 34.5444 38.8752 35.2207C36.3481 38.9588 32.1539 41.1975 27.6503 41.1975C20.1898 41.1975 14.1186 35.1263 14.1186 27.6606C14.1186 20.1948 20.1898 14.1341 27.6503 14.1341C35.1108 14.1341 41.182 20.2053 41.182 27.6606C41.182 28.8874 41.0142 30.0985 40.6839 31.2781L42.4403 33.0344C43.0747 31.2991 43.3945 29.4903 43.3945 27.6553C43.3945 18.9732 36.3324 11.9111 27.6451 11.9111C18.9577 11.9111 11.9009 18.9732 11.9009 27.6553" fill="white"/>
</mask>
<g mask="url(#mask5_4634_6789)">
<path d="M34.5866 -14.343L-10.8779 38.291L42.3037 84.2285L87.7682 31.5945L34.5866 -14.343Z" fill="url(#paint5_linear_4634_6789)"/>
</g>
<mask id="mask6_4634_6789" style="mask-type:luminance" maskUnits="userSpaceOnUse" x="3" y="3" width="52" height="55">
<path d="M3.95312 27.6659C3.95312 40.7363 14.5856 51.3687 27.6559 51.3687C32.2119 51.3687 36.6473 50.058 40.4746 47.5939L40.5847 47.5205L51.0441 57.9799H54.195L40.8416 44.6212C40.1758 45.1402 39.4942 45.6121 38.8074 46.0263C35.452 48.071 31.5933 49.1562 27.6559 49.1562C15.8071 49.1562 6.17084 39.5199 6.17084 27.6712C6.17084 15.8224 15.8071 6.1861 27.6559 6.1861C39.5047 6.1861 49.1462 15.8224 49.1462 27.6712C49.1462 31.0947 48.3598 34.3662 46.8079 37.4071L48.4384 39.0376C50.3521 35.5564 51.3587 31.6347 51.3587 27.6712C51.3587 14.6061 40.7262 3.97363 27.6611 3.97363C14.596 3.97363 3.95837 14.6061 3.95837 27.6712" fill="white"/>
</mask>
<g mask="url(#mask6_4634_6789)">
<path d="M25.4182 -20.8952L-22.7676 34.8892L32.7232 82.8213L80.9089 27.037L25.4182 -20.8952Z" fill="url(#paint6_linear_4634_6789)"/>
</g>
<mask id="mask7_4634_6789" style="mask-type:luminance" maskUnits="userSpaceOnUse" x="7" y="7" width="53" height="51">
<path d="M7.95361 27.666C7.95361 38.5291 16.793 47.3633 27.6509 47.3633C32.4481 47.3633 37.0827 45.6069 40.6845 42.4193L40.7999 42.3144L56.4654 57.9695H59.6321L40.8051 39.1635C40.2756 39.7612 39.7041 40.3379 39.0959 40.8622C35.9136 43.6304 31.8504 45.1508 27.6456 45.1508C18.0041 45.1508 10.1608 37.3076 10.1608 27.666C10.1608 18.0245 18.0041 10.1812 27.6456 10.1812C37.2872 10.1812 45.1304 18.0245 45.1304 27.666C45.1304 29.9833 44.6796 32.243 43.783 34.3873L45.4555 36.0598C46.7138 33.4174 47.3481 30.5968 47.3481 27.666C47.3481 16.8081 38.5088 7.96875 27.6509 7.96875C16.793 7.96875 7.95361 16.8029 7.95361 27.666Z" fill="white"/>
</mask>
<g mask="url(#mask7_4634_6789)">
<path d="M30.0395 -17.6032L-16.7822 36.6021L37.5539 83.5369L84.3757 29.3316L30.0395 -17.6032Z" fill="url(#paint7_linear_4634_6789)"/>
</g>
<defs>
<linearGradient id="paint0_linear_4634_6789" x1="9.72024" y1="9.18941" x2="57.6696" y2="57.1388" gradientUnits="userSpaceOnUse">
<stop stop-color="#00365C"/>
<stop offset="0.32" stop-color="#005583"/>
<stop offset="0.44" stop-color="#025886"/>
<stop offset="0.56" stop-color="#086292"/>
<stop offset="0.67" stop-color="#1373A5"/>
<stop offset="0.78" stop-color="#238BC0"/>
<stop offset="0.88" stop-color="#36A9E1"/>
<stop offset="0.92" stop-color="#1F9FDB"/>
<stop offset="0.97" stop-color="#0895D6"/>
<stop offset="1" stop-color="#0092D4"/>
</linearGradient>
<linearGradient id="paint1_linear_4634_6789" x1="12.0104" y1="7.06862" x2="59.9597" y2="55.018" gradientUnits="userSpaceOnUse">
<stop stop-color="#00365C"/>
<stop offset="0.32" stop-color="#005583"/>
<stop offset="0.44" stop-color="#025886"/>
<stop offset="0.56" stop-color="#086292"/>
<stop offset="0.67" stop-color="#1373A5"/>
<stop offset="0.78" stop-color="#238BC0"/>
<stop offset="0.88" stop-color="#36A9E1"/>
<stop offset="0.92" stop-color="#1F9FDB"/>
<stop offset="0.97" stop-color="#0895D6"/>
<stop offset="1" stop-color="#0092D4"/>
</linearGradient>
<linearGradient id="paint2_linear_4634_6789" x1="9.35359" y1="9.4024" x2="57.3029" y2="57.3517" gradientUnits="userSpaceOnUse">
<stop stop-color="#00365C"/>
<stop offset="0.32" stop-color="#005583"/>
<stop offset="0.44" stop-color="#025886"/>
<stop offset="0.56" stop-color="#086292"/>
<stop offset="0.67" stop-color="#1373A5"/>
<stop offset="0.78" stop-color="#238BC0"/>
<stop offset="0.88" stop-color="#36A9E1"/>
<stop offset="0.92" stop-color="#1F9FDB"/>
<stop offset="0.97" stop-color="#0895D6"/>
<stop offset="1" stop-color="#0092D4"/>
</linearGradient>
<linearGradient id="paint3_linear_4634_6789" x1="10.5864" y1="8.48619" x2="58.5357" y2="56.4355" gradientUnits="userSpaceOnUse">
<stop stop-color="#00365C"/>
<stop offset="0.32" stop-color="#005583"/>
<stop offset="0.44" stop-color="#025886"/>
<stop offset="0.56" stop-color="#086292"/>
<stop offset="0.67" stop-color="#1373A5"/>
<stop offset="0.78" stop-color="#238BC0"/>
<stop offset="0.88" stop-color="#36A9E1"/>
<stop offset="0.92" stop-color="#1F9FDB"/>
<stop offset="0.97" stop-color="#0895D6"/>
<stop offset="1" stop-color="#0092D4"/>
</linearGradient>
<linearGradient id="paint4_linear_4634_6789" x1="63.8615" y1="59.3299" x2="8.15656" y2="11.2127" gradientUnits="userSpaceOnUse">
<stop stop-color="#00365C"/>
<stop offset="0.32" stop-color="#005583"/>
<stop offset="0.44" stop-color="#025886"/>
<stop offset="0.56" stop-color="#086292"/>
<stop offset="0.67" stop-color="#1373A5"/>
<stop offset="0.78" stop-color="#238BC0"/>
<stop offset="0.88" stop-color="#36A9E1"/>
<stop offset="0.92" stop-color="#1F9FDB"/>
<stop offset="0.97" stop-color="#0895D6"/>
<stop offset="1" stop-color="#0092D4"/>
</linearGradient>
<linearGradient id="paint5_linear_4634_6789" x1="65.3628" y1="58.4886" x2="9.65387" y2="10.3679" gradientUnits="userSpaceOnUse">
<stop stop-color="#00365C"/>
<stop offset="0.32" stop-color="#005583"/>
<stop offset="0.44" stop-color="#025886"/>
<stop offset="0.56" stop-color="#086292"/>
<stop offset="0.67" stop-color="#1373A5"/>
<stop offset="0.78" stop-color="#238BC0"/>
<stop offset="0.88" stop-color="#36A9E1"/>
<stop offset="0.92" stop-color="#1F9FDB"/>
<stop offset="0.97" stop-color="#0895D6"/>
<stop offset="1" stop-color="#0092D4"/>
</linearGradient>
<linearGradient id="paint6_linear_4634_6789" x1="63.3331" y1="60.1052" x2="7.62015" y2="11.9812" gradientUnits="userSpaceOnUse">
<stop stop-color="#00365C"/>
<stop offset="0.32" stop-color="#005583"/>
<stop offset="0.44" stop-color="#025886"/>
<stop offset="0.56" stop-color="#086292"/>
<stop offset="0.67" stop-color="#1373A5"/>
<stop offset="0.78" stop-color="#238BC0"/>
<stop offset="0.88" stop-color="#36A9E1"/>
<stop offset="0.92" stop-color="#1F9FDB"/>
<stop offset="0.97" stop-color="#0895D6"/>
<stop offset="1" stop-color="#0092D4"/>
</linearGradient>
<linearGradient id="paint7_linear_4634_6789" x1="64.8394" y1="58.3002" x2="9.11855" y2="10.1693" gradientUnits="userSpaceOnUse">
<stop stop-color="#00365C"/>
<stop offset="0.32" stop-color="#005583"/>
<stop offset="0.44" stop-color="#025886"/>
<stop offset="0.56" stop-color="#086292"/>
<stop offset="0.67" stop-color="#1373A5"/>
<stop offset="0.78" stop-color="#238BC0"/>
<stop offset="0.88" stop-color="#36A9E1"/>
<stop offset="0.92" stop-color="#1F9FDB"/>
<stop offset="0.97" stop-color="#0895D6"/>
<stop offset="1" stop-color="#0092D4"/>
</linearGradient>
</defs>
</svg>
