<svg width="148" height="55" viewBox="0 0 148 55" fill="none" xmlns="http://www.w3.org/2000/svg">
<path d="M0 25.7968V53.726L38.8064 39.0866L0 25.7968Z" fill="#4F5063"/>
<path d="M65.902 28.5605V0.114136L26.9561 15.2243L65.902 28.5605Z" fill="#4F5063"/>
<path d="M0 25.7968L38.8064 39.0866L65.9024 28.5605L26.9565 15.2242L0 25.7968Z" fill="url(#paint0_radial_81_7860)"/>
<path d="M77.5967 49.7942L80.6196 47.27C81.8579 49.3446 84.1464 50.7439 87.2118 50.7439C89.9201 50.7439 91.1796 50.0939 91.1796 48.6946C91.1796 47.595 90.5503 47.1444 88.7657 46.9197L84.1888 46.3203C80.5356 45.8454 78.7935 44.2457 78.7935 40.9702C78.7935 37.4467 81.6697 35.3721 86.7707 35.3721C90.5503 35.3721 93.4893 36.5466 95.3366 39.0211L92.6708 41.6909C91.558 39.9413 89.4162 38.8671 86.5613 38.8671C84.2516 38.8671 82.992 39.5171 82.992 40.7169C82.992 41.8165 83.6223 42.2407 85.5324 42.4908L89.6469 42.9667C93.7625 43.4658 95.4631 44.9157 95.4631 48.2155C95.4631 52.14 92.3764 54.3138 87.0024 54.3138C82.5944 54.318 79.1304 52.5937 77.5967 49.7942Z" fill="#9EA4B0"/>
<path d="M97.1006 50.269C97.1006 49.0692 97.5417 48.0699 98.4239 47.4199C99.2211 46.8194 100.355 46.4448 102.538 46.295L108.039 45.9203V45.6196C108.039 44.2478 106.906 43.5207 105.037 43.5207C103.126 43.5207 101.929 44.2457 101.699 45.4951H97.395C97.8148 42.5953 100.796 40.7465 105.037 40.7465C109.95 40.7465 112.112 42.6712 112.112 46.3709V49.8163C112.112 51.5659 112.176 52.7151 112.301 53.7208H108.271C108.187 53.1203 108.144 52.1706 108.123 51.4214C107.283 53.1952 105.247 54.1956 102.349 54.1956C99.0329 54.1935 97.1006 52.7932 97.1006 50.269ZM108.081 48.4192V47.9971L103.862 48.3474C101.929 48.5226 101.279 48.9721 101.279 49.9472C101.279 50.9718 102.224 51.5216 103.862 51.5216C106.36 51.5184 108.081 50.3186 108.081 48.4192Z" fill="#9EA4B0"/>
<path d="M119.524 53.7208H115.492V35.5969H119.524V53.7208Z" fill="#9EA4B0"/>
<path d="M122.946 35.5463H127.208V39.3958H122.946V35.5463ZM123.072 41.2203H127.103V53.7208H123.072V41.2203Z" fill="#9EA4B0"/>
<path d="M137.81 47.917L134.682 50.5171V53.7208H130.65V35.5969H134.682V46.4196L140.602 41.2203H145.935L140.896 45.645L146.145 53.7208H141.526L137.81 47.917Z" fill="#9EA4B0"/>
<path d="M143.827 23.09C143.841 23.4524 143.784 23.8139 143.661 24.1529C143.537 24.4919 143.349 24.8014 143.108 25.0628C142.868 25.3243 142.578 25.5322 142.259 25.6743C141.939 25.8164 141.595 25.8896 141.247 25.8896C140.899 25.8896 140.555 25.8164 140.235 25.6743C139.916 25.5322 139.627 25.3243 139.386 25.0628C139.145 24.8014 138.957 24.4919 138.833 24.1529C138.71 23.8139 138.653 23.4524 138.667 23.09V18.352L134.469 19.4452V23.1386C134.469 23.8399 134.202 24.5126 133.726 25.0085C133.251 25.5044 132.606 25.783 131.933 25.783C131.261 25.783 130.616 25.5044 130.141 25.0085C129.665 24.5126 129.398 23.8399 129.398 23.1386V20.7653L125.227 21.8522V22.8642C125.227 23.2477 125.155 23.6274 125.014 23.9816C124.873 24.3359 124.667 24.6578 124.407 24.9289C124.147 25.2 123.839 25.4151 123.499 25.5618C123.159 25.7086 122.795 25.7841 122.428 25.7841V25.7841C122.06 25.7841 121.696 25.7086 121.356 25.5618C121.017 25.4151 120.708 25.2 120.448 24.9289C120.188 24.6578 119.982 24.3359 119.841 23.9816C119.701 23.6274 119.628 23.2477 119.628 22.8642V10.8618H115.434L115.465 22.3556C115.465 26.3898 117.549 29.5819 122.339 29.5819C125.013 29.5819 126.911 28.8158 128.062 27.4904C128.995 28.8749 130.737 29.5819 132.168 29.5819C134.345 29.5819 136.114 28.934 137.238 27.7553C138.419 29.0216 139.851 29.5819 141.841 29.5819C145.888 29.5819 148 27.7268 148 23.8393V15.8531L143.832 16.9707L143.827 23.09Z" fill="#9EA4B0"/>
<path d="M107.416 10.8618V22.9159C107.416 23.6763 107.127 24.4056 106.611 24.9433C106.096 25.481 105.397 25.783 104.668 25.783H104.523H104.493H104.461H104.404C103.698 25.7481 103.033 25.4312 102.545 24.8981C102.058 24.365 101.786 23.6567 101.786 22.9202V10.8618H97.7112V23.7359C86.5482 27.8672 82.6907 25.0275 82.6907 22.5529V18.9893L78.8027 19.0189V23.3454C78.8027 28.9878 86.6018 32.7118 99.1731 27.5896L99.163 27.5548C100.377 28.7705 102.265 29.5735 104.503 29.5735C108.295 29.5735 111.584 26.4552 111.584 22.3524V10.8618H107.416Z" fill="#9EA4B0"/>
<path d="M93.177 16.7005L90.6114 17.3749C89.9608 17.4097 89.538 17.2176 89.4368 16.7533C89.2982 16.1202 89.7403 15.6833 90.5335 15.4955C91.0484 15.373 91.7101 15.3361 92.6165 15.3899L92.1259 13.1507C91.2558 12.965 90.3928 12.9586 89.7261 13.118C87.9365 13.5401 86.7629 15.0322 87.1342 16.7259C87.1912 16.9987 87.3002 17.2568 87.4547 17.4849C87.6092 17.7129 87.806 17.9062 88.0336 18.0534L86.9258 18.3446V20.6809L93.177 19.039V16.7005Z" fill="#9EA4B0"/>
<defs>
<radialGradient id="paint0_radial_81_7860" cx="0" cy="0" r="1" gradientUnits="userSpaceOnUse" gradientTransform="translate(79.1738 43.2221) scale(67.2885 70.1857)">
<stop stop-color="#E2EFF9"/>
<stop offset="0.21" stop-color="#DAE6F1"/>
<stop offset="0.54" stop-color="#C5CFDA"/>
<stop offset="0.95" stop-color="#A3A9B5"/>
<stop offset="1" stop-color="#9EA4B0"/>
</radialGradient>
</defs>
</svg>
